<svg width="109" height="58" viewBox="0 0 109 58" fill="none" xmlns="http://www.w3.org/2000/svg">
<path d="M1 33.5028C9.91545 0.204319 35.8756 -13.6576 63.652 20.5825C63.652 20.5825 30.2348 12.2925 1 33.5028Z" fill="url(#paint0_linear_37_13)" stroke="#5499EB" stroke-linejoin="round"/>
<path d="M25.5278 42.9497C27.7358 43.3657 29.3838 43.8297 30.4718 44.3417C31.5598 44.8537 32.2958 45.5257 32.6798 46.3577C33.0638 47.1577 33.2558 48.2937 33.2558 49.7657C33.2558 51.5897 32.9198 53.0457 32.2478 54.1337C31.6078 55.1897 30.4558 55.9737 28.7918 56.4857C27.1598 56.9977 24.8398 57.2537 21.8318 57.2537C20.2958 57.2537 18.8078 57.1737 17.3678 57.0137C15.9278 56.8857 14.1838 56.6457 12.1358 56.2937V49.3817H15.0158L16.4078 53.4617C18.1038 53.7497 19.9598 53.8937 21.9758 53.8937C23.9598 53.8937 25.4478 53.7977 26.4398 53.6057C27.4318 53.3817 28.1038 53.0297 28.4558 52.5497C28.8398 52.0377 29.0318 51.3017 29.0318 50.3417C29.0318 49.4777 28.8558 48.8377 28.5038 48.4217C28.1518 47.9737 27.6238 47.6537 26.9198 47.4617C26.2478 47.2697 25.0638 47.0457 23.3678 46.7897L20.1038 46.2137C17.8318 45.7977 16.1198 45.3337 14.9678 44.8217C13.8158 44.3097 12.9998 43.6217 12.5198 42.7577C12.0718 41.8617 11.8478 40.6137 11.8478 39.0137C11.8478 37.2537 12.1518 35.8617 12.7598 34.8377C13.3998 33.8137 14.4878 33.0617 16.0238 32.5817C17.5598 32.0697 19.7198 31.8137 22.5038 31.8137C25.2878 31.8137 28.5838 32.1337 32.3918 32.7737V39.4457H29.6078L28.3118 35.7017C26.1998 35.3497 24.1998 35.1737 22.3118 35.1737C20.6478 35.1737 19.3678 35.2857 18.4718 35.5097C17.5758 35.7337 16.9518 36.0857 16.5998 36.5657C16.2478 37.0457 16.0718 37.7337 16.0718 38.6297C16.0718 39.5257 16.2638 40.1977 16.6478 40.6457C17.0318 41.0617 17.6558 41.3977 18.5198 41.6537C19.3838 41.8777 20.8878 42.1657 23.0318 42.5177C23.8318 42.6137 24.6638 42.7577 25.5278 42.9497Z" fill="#5499EB"/>
<path d="M48.7775 56.9657C45.7055 56.9657 43.4975 56.3417 42.1535 55.0937C40.8415 53.8457 40.1855 51.7337 40.1855 48.7577V35.8457H36.4415V33.1577L40.1855 32.4857L41.6255 25.5257H44.2175V32.4857L52.4255 32.5337V35.8937L44.2175 35.8457V48.7577C44.2175 50.0697 44.3775 51.0617 44.6975 51.7337C45.0175 52.4057 45.5455 52.8697 46.2815 53.1257C47.0175 53.3817 48.0895 53.5097 49.4975 53.5097C50.5855 53.5097 51.7215 53.3977 52.9055 53.1737V56.5337C51.7535 56.8217 50.3775 56.9657 48.7775 56.9657Z" fill="#5499EB"/>
<path d="M68.3813 31.8137C71.6453 31.8137 74.2853 32.8377 76.3013 34.8857C78.3493 36.9017 79.3733 39.9097 79.3733 43.9097V45.8297H60.5573C60.7173 47.9737 61.1013 49.6217 61.7093 50.7737C62.3493 51.8937 63.2613 52.6777 64.4453 53.1257C65.6613 53.5737 67.3253 53.7977 69.4373 53.7977C72.4773 53.7977 75.4853 53.4297 78.4613 52.6937V56.1497C77.2133 56.4697 75.7573 56.7257 74.0933 56.9177C72.4293 57.1417 70.8453 57.2537 69.3413 57.2537C65.0853 57.2537 61.8533 56.2937 59.6453 54.3737C57.4373 52.4537 56.3333 49.1737 56.3333 44.5337C56.3333 40.2137 57.4213 37.0137 59.5973 34.9337C61.7733 32.8537 64.7013 31.8137 68.3813 31.8137ZM68.1413 35.2697C65.6453 35.2697 63.8213 35.8297 62.6693 36.9497C61.5173 38.0697 60.8293 39.8937 60.6053 42.4217H75.1013C74.9093 40.0537 74.2533 38.2777 73.1333 37.0937C72.0133 35.8777 70.3493 35.2697 68.1413 35.2697Z" fill="#5499EB"/>
<path d="M98.564 31.8137C101.764 31.8137 104.228 32.8217 105.956 34.8377C107.684 36.8537 108.548 40.1177 108.548 44.6297C108.548 47.7977 108.196 50.2937 107.492 52.1177C106.788 53.9097 105.732 55.1897 104.324 55.9577C102.948 56.6937 101.172 57.0617 98.996 57.0617C97.012 57.0617 95.252 56.7417 93.716 56.1017C92.212 55.4617 90.788 54.4697 89.444 53.1257L88.196 56.5817H85.748V26.5817L82.484 25.2377V22.5017H89.78V34.4537C91.348 33.5257 92.836 32.8537 94.244 32.4377C95.652 32.0217 97.092 31.8137 98.564 31.8137ZM98.18 53.5577C99.62 53.5577 100.788 53.3177 101.684 52.8377C102.58 52.3257 103.236 51.4457 103.652 50.1977C104.1 48.9497 104.324 47.2217 104.324 45.0137C104.324 41.7177 103.796 39.2857 102.74 37.7177C101.716 36.1177 100.004 35.3177 97.604 35.3177C96.484 35.3177 95.396 35.4617 94.34 35.7497C93.316 36.0377 91.796 36.5497 89.78 37.2857V50.4377C92.404 52.5177 95.204 53.5577 98.18 53.5577Z" fill="#5499EB"/>
<defs>
<linearGradient id="paint0_linear_37_13" x1="28.8058" y1="0.946131" x2="32.6221" y2="29.2373" gradientUnits="userSpaceOnUse">
<stop stop-color="white"/>
<stop offset="1" stop-color="#5499EB"/>
</linearGradient>
</defs>
</svg>
