<svg width="52" height="52" viewBox="0 0 52 52" fill="none" xmlns="http://www.w3.org/2000/svg">
<g clip-path="url(#clip0_114_29)">
<g clip-path="url(#clip1_114_29)">
<rect x="0" y="0" width="52" height="52" fill="#2B2E3A"/>
<path d="M21.2558 14.8754C15.7704 13.9134 11.4331 14.9203 9.70447 17.8034C8.41459 19.9549 8.7833 22.8074 10.5988 25.8565C10.6347 25.9199 10.6833 25.9755 10.7419 26.0206C10.8004 26.0655 10.8677 26.0988 10.9397 26.1185C11.0118 26.138 11.0872 26.1437 11.1616 26.1348C11.2359 26.1261 11.3077 26.1031 11.3726 26.0672C11.4376 26.0312 11.4945 25.9833 11.54 25.926C11.5854 25.8685 11.6185 25.8031 11.6373 25.7332C11.6561 25.6635 11.6603 25.5908 11.6495 25.5193C11.6387 25.448 11.6133 25.3794 11.5746 25.3176C9.93945 22.571 9.62115 20.1093 10.6788 18.3452C12.1149 15.9501 15.9834 15.0519 21.0542 15.9412C21.1999 15.9645 21.3493 15.9318 21.4701 15.8499C21.591 15.7681 21.6735 15.6438 21.7001 15.5039C21.7264 15.3639 21.6948 15.2196 21.6117 15.102C21.5286 14.9844 21.4007 14.903 21.2558 14.8754ZM13.4514 29.5627C15.6694 31.9098 18.551 34.1115 21.8374 35.9384C29.7946 40.3625 38.2658 41.5449 42.4407 38.8037C42.5031 38.7643 42.5567 38.7131 42.5985 38.6534C42.6402 38.5939 42.6691 38.5266 42.6837 38.4562C42.6983 38.3857 42.698 38.313 42.6831 38.2425C42.6681 38.172 42.6388 38.1052 42.5966 38.0456C42.5546 37.9861 42.5006 37.9353 42.438 37.8963C42.3753 37.8571 42.3051 37.8305 42.2314 37.8177C42.158 37.8049 42.0825 37.8064 42.0098 37.822C41.9368 37.8376 41.8678 37.8671 41.8068 37.9087C38.0703 40.3621 30.0234 39.2388 22.4 35.0004C19.2118 33.2279 16.4213 31.0959 14.2835 28.8335C14.2339 28.7805 14.1739 28.7376 14.1069 28.707C14.04 28.6765 13.9675 28.659 13.8935 28.6556C13.8195 28.6519 13.7456 28.6627 13.6759 28.6867C13.6062 28.7108 13.5421 28.7478 13.4873 28.7959C13.4325 28.8439 13.3881 28.9018 13.3567 28.9664C13.3252 29.031 13.3073 29.1008 13.3039 29.1721C13.3006 29.2434 13.3119 29.3145 13.3372 29.3815C13.3625 29.4486 13.4013 29.5101 13.4514 29.5627Z" fill="#9FEAF9"/>
<path d="M41.1089 28.9042C44.7007 24.8181 45.9547 20.7085 44.2297 17.8314C42.9605 15.7142 40.2771 14.5964 36.7108 14.5518C36.5629 14.552 36.4212 14.6082 36.3161 14.7082C36.2111 14.8083 36.151 14.9442 36.1491 15.0865C36.1472 15.2288 36.2035 15.3661 36.3058 15.4688C36.4083 15.5714 36.5486 15.6311 36.6963 15.635C39.9036 15.6752 42.2154 16.6383 43.2556 18.3731C44.6883 20.7629 43.5699 24.4277 40.2501 28.2042C40.2014 28.2584 40.1643 28.3212 40.1411 28.3894C40.1179 28.4575 40.1088 28.5292 40.1145 28.6007C40.1202 28.6722 40.1407 28.7417 40.1746 28.8054C40.2084 28.8694 40.2552 28.9261 40.3119 28.9724C40.3687 29.0185 40.4345 29.0537 40.5054 29.0752C40.5765 29.0969 40.6511 29.1048 40.7252 29.0984C40.7992 29.0921 40.8713 29.0717 40.9372 29.0382C41.0032 29.0049 41.0614 28.9594 41.1089 28.9042ZM31.878 15.0561C28.6304 15.7262 25.1736 17.0364 21.8539 18.882C13.6395 23.4488 8.28108 30.183 9.02527 35.066C9.03518 35.1371 9.05965 35.2055 9.09726 35.2673C9.13485 35.3292 9.18484 35.3832 9.24431 35.4265C9.30377 35.4696 9.37154 35.5009 9.44368 35.5187C9.51582 35.5364 9.5909 35.5403 9.66456 35.5297C9.73822 35.5193 9.80901 35.495 9.87279 35.458C9.9366 35.421 9.99214 35.3723 10.0362 35.3144C10.0803 35.2567 10.112 35.1911 10.1295 35.1214C10.1471 35.0517 10.1501 34.9794 10.1384 34.9085C9.47752 30.573 14.5569 24.1898 22.4164 19.8202C25.6368 18.0297 28.984 16.7611 32.1136 16.1154C32.1868 16.1015 32.2564 16.0737 32.3185 16.0336C32.3805 15.9936 32.4336 15.942 32.4746 15.882C32.5157 15.8219 32.544 15.7546 32.5577 15.684C32.5716 15.6133 32.5705 15.5407 32.5549 15.4705C32.5393 15.4001 32.5094 15.3336 32.4668 15.2745C32.4239 15.2155 32.3697 15.1653 32.3067 15.1267C32.2436 15.0881 32.1733 15.062 32.0997 15.0499C32.0261 15.0378 31.9508 15.0399 31.878 15.0561Z" fill="#9FEAF9"/>
<path d="M18.5702 38.451C20.4484 43.5006 23.5207 46.6099 26.9754 46.6099C29.4951 46.6099 31.8261 44.9558 33.644 42.044C33.6834 41.9831 33.7096 41.915 33.7216 41.8442C33.7334 41.7733 33.7305 41.701 33.713 41.6311C33.6955 41.5612 33.6638 41.4956 33.6195 41.4377C33.5754 41.3798 33.52 41.3309 33.456 41.2939C33.3921 41.2569 33.321 41.2325 33.2474 41.2222C33.1736 41.2118 33.0983 41.2157 33.0262 41.2336C32.954 41.2514 32.8861 41.2829 32.8266 41.3262C32.7671 41.3695 32.7173 41.4239 32.6798 41.4858C31.0461 44.1027 29.0394 45.5264 26.9754 45.5264C24.1056 45.5264 21.3653 42.7533 19.6295 38.0859C19.6057 38.0177 19.568 37.9545 19.5186 37.9005C19.4692 37.8463 19.4091 37.8022 19.3418 37.7707C19.2744 37.7392 19.2012 37.7209 19.1265 37.7171C19.0518 37.7132 18.977 37.7238 18.9065 37.7479C18.836 37.7723 18.7713 37.8099 18.7161 37.8584C18.6609 37.9072 18.6164 37.9661 18.5851 38.0315C18.5538 38.0969 18.5364 38.1678 18.5338 38.2397C18.5313 38.3118 18.5435 38.3837 18.5702 38.451ZM35.724 37.4632C36.6965 34.4715 37.2185 31.0204 37.2185 27.4241C37.2185 18.4503 33.9568 10.7145 29.3111 8.7281C29.1755 8.67336 29.0228 8.67199 28.8861 8.72432C28.7494 8.77662 28.6393 8.87845 28.5796 9.00794C28.5199 9.13744 28.5153 9.28431 28.5667 9.41708C28.6182 9.54982 28.7216 9.6579 28.8547 9.71813C32.9981 11.49 36.0934 18.8315 36.0934 27.4241C36.0934 30.9132 35.5878 34.2552 34.6506 37.1396C34.6274 37.2078 34.6183 37.2797 34.6242 37.3514C34.6301 37.4229 34.6506 37.4926 34.6848 37.5566C34.7187 37.6204 34.7658 37.677 34.8227 37.7234C34.8799 37.7695 34.9459 37.8044 35.017 37.8257C35.0881 37.8473 35.163 37.8548 35.2372 37.8481C35.3115 37.8416 35.3836 37.8207 35.4494 37.7869C35.5152 37.7532 35.5734 37.7073 35.6205 37.6517C35.6677 37.596 35.7027 37.532 35.724 37.4632ZM46.3182 36.9326C46.3182 35.5008 45.1129 34.3401 43.626 34.3401C42.1391 34.3401 40.9338 35.5008 40.9338 36.9326C40.9338 38.3644 42.1391 39.5251 43.626 39.5251C45.1129 39.5251 46.3182 38.3644 46.3182 36.9326ZM45.1932 36.9326C45.1932 37.1308 45.1527 37.3271 45.0738 37.5101C44.9952 37.6933 44.8798 37.8597 44.7342 37.9998C44.5887 38.14 44.4159 38.2511 44.2257 38.3271C44.0356 38.4028 43.8318 38.4418 43.626 38.4418C43.4201 38.4418 43.2163 38.4028 43.0263 38.3271C42.836 38.2511 42.6633 38.14 42.5177 37.9998C42.3722 37.8597 42.2568 37.6933 42.1781 37.5101C42.0992 37.3271 42.0587 37.1308 42.0587 36.9326C42.0587 36.5324 42.2239 36.1485 42.5177 35.8654C42.8118 35.5824 43.2102 35.4234 43.626 35.4234C44.0417 35.4234 44.4402 35.5824 44.7342 35.8654C45.0281 36.1485 45.1932 36.5324 45.1932 36.9326ZM10.286 39.5251C11.7731 39.5251 12.9784 38.3644 12.9784 36.9326C12.9784 35.5008 11.7729 34.3401 10.286 34.3401C8.79935 34.3401 7.59384 35.5008 7.59384 36.9326C7.59384 38.3644 8.79935 39.5251 10.286 39.5251ZM10.286 38.4418C9.87036 38.4418 9.47173 38.2828 9.17781 37.9998C8.88389 37.7169 8.71877 37.333 8.71877 36.9326C8.71877 36.5324 8.88389 36.1485 9.17781 35.8654C9.47173 35.5824 9.87036 35.4234 10.286 35.4234C10.7017 35.4234 11.1003 35.5824 11.3943 35.8654C11.6882 36.1485 11.8533 36.5324 11.8533 36.9326C11.8533 37.333 11.6882 37.7169 11.3943 37.9998C11.1003 38.2828 10.7017 38.4418 10.286 38.4418Z" fill="#9FEAF9"/>
<path d="M26.9754 11.3725C28.4623 11.3725 29.6676 10.2118 29.6676 8.77998C29.6676 7.34816 28.4623 6.1875 26.9754 6.1875C25.4885 6.1875 24.2832 7.34816 24.2832 8.77998C24.2832 10.2118 25.4885 11.3725 26.9754 11.3725ZM26.9754 10.2892C26.5596 10.2892 26.1612 10.1302 25.8671 9.84716C25.5733 9.56413 25.4081 9.18026 25.4081 8.77998C25.4081 8.37971 25.5733 7.99584 25.8671 7.71281C26.1612 7.42977 26.5596 7.27077 26.9754 7.27077C27.3912 7.27077 27.7896 7.42977 28.0837 7.71281C28.3775 7.99584 28.5427 8.37971 28.5427 8.77998C28.5427 9.18026 28.3775 9.56413 28.0837 9.84716C27.7896 10.1302 27.3912 10.2892 26.9754 10.2892ZM27.3865 29.2574C26.335 29.4762 25.2991 28.8327 25.0715 27.8201C24.9624 27.3338 25.0584 26.8258 25.3383 26.4078C25.6182 25.9897 26.0591 25.6958 26.5641 25.5906C27.6156 25.3718 28.6515 26.0153 28.8793 27.0279C29.1065 28.0405 28.4382 29.0382 27.3865 29.2574Z" fill="#9FEAF9"/>
</g>
</g>
<defs>
<clipPath id="clip0_114_29">
<rect x="0" y="0" width="52" height="52" rx="7" fill="white"/>
</clipPath>
<clipPath id="clip1_114_29">
<rect width="52" height="52" fill="white" transform="translate(0 0)"/>
</clipPath>
</defs>
</svg>
