<svg width="52" height="52" viewBox="0 0 52 52" fill="none" xmlns="http://www.w3.org/2000/svg">
<g clip-path="url(#clip0_99_71)">
<rect x="0" y="0" width="52" height="52" rx="7" fill="black"/>
<path d="M0 0H52.8881V52.7274H0V0ZM48.5966 40.3254C48.2146 37.9529 46.6582 35.9596 42.0415 34.1006C40.435 33.3531 38.6494 32.8331 38.119 31.6306C37.9204 30.9156 37.8898 30.5256 38.0186 30.1031C38.346 28.7034 40.0159 28.2831 41.3256 28.6731C42.1769 28.9331 42.9627 29.5831 43.456 30.6231C45.7131 29.1584 45.7131 29.1584 47.2869 28.1856C46.6975 27.2756 46.405 26.8834 46.0078 26.4956C44.6326 24.9681 42.8012 24.1881 39.8216 24.2553L38.2827 24.4481C36.8071 24.8056 35.4014 25.5856 34.5501 26.6256C32.0616 29.4228 32.7798 34.2978 35.7921 36.3128C38.7717 38.5228 43.1286 39.0081 43.6852 41.0903C44.2091 43.6253 41.7862 44.4378 39.3938 44.1453C37.6235 43.7552 36.6434 42.8756 35.5629 41.2506L31.5683 43.5278C32.0267 44.5678 32.5506 45.0206 33.3364 45.9306C37.1345 49.7353 46.6299 49.5402 48.3347 43.7552C48.398 43.5602 48.8585 42.2278 48.4962 40.1803L48.5966 40.3254ZM28.9882 24.6279H24.0812C24.0812 28.8269 24.0615 32.9999 24.0615 37.2054C24.0615 39.8748 24.199 42.3253 23.7603 43.0793C23.04 44.5721 21.1846 44.3814 20.342 44.1193C19.4776 43.6946 19.0388 43.1096 18.5302 42.2668C18.3927 42.0393 18.2901 41.8421 18.253 41.8421L14.2693 44.2796C14.9351 45.6446 15.9065 46.8189 17.1594 47.5664C19.0257 48.6714 21.5338 49.0289 24.1598 48.4439C25.8689 47.9543 27.3423 46.9468 28.1129 45.3867C29.2261 43.3717 28.9904 40.9018 28.9795 38.1371C29.0057 33.6868 28.9795 29.2343 28.9795 24.7493L28.9882 24.6279Z" fill="#F7DF1E"/>
</g>
<defs>
<clipPath id="clip0_99_71">
<rect x="0" y="0" width="52" height="52" rx="7" fill="white"/>
</clipPath>
</defs>
</svg>
