<svg width="52" height="52" viewBox="0 0 52 52" fill="none" xmlns="http://www.w3.org/2000/svg">
<g clip-path="url(#clip0_102_174)">
<g clip-path="url(#clip1_102_174)">
<rect x="0" y="0" width="52" height="52" fill="#242938"/>
<path d="M24.8775 6.42581C24.7897 6.43375 24.51 6.46156 24.2584 6.48141C18.456 7.00163 13.0209 10.115 9.57854 14.9003C7.66168 17.5609 6.4357 20.579 5.97245 23.7758C5.80873 24.8917 5.78876 25.2214 5.78876 26.7343C5.78876 28.2473 5.80873 28.577 5.97245 29.6928C7.08263 37.3213 12.5417 43.7309 19.9455 46.1057C21.2714 46.5306 22.669 46.8205 24.2584 46.9951C24.8775 47.0626 27.553 47.0626 28.1721 46.9951C30.9156 46.6933 33.2397 46.0183 35.5319 44.8546C35.8833 44.6761 35.9513 44.6283 35.9033 44.5887C35.8714 44.5648 34.3738 42.5672 32.5768 40.1529L29.3102 35.7648L25.2168 29.7405C22.9646 26.4286 21.1117 23.7201 21.0955 23.7201C21.0796 23.7162 21.0637 26.3928 21.0557 29.6611C21.0437 35.3835 21.0398 35.6139 20.9679 35.7487C20.8641 35.9433 20.7842 36.0228 20.6163 36.1103C20.4886 36.1737 20.3768 36.1857 19.7738 36.1857H19.0829L18.8992 36.0705C18.7794 35.9951 18.6916 35.8958 18.6317 35.7806L18.5478 35.6019L18.5558 27.6398L18.5678 19.6736L18.6916 19.5187C18.7555 19.4353 18.8913 19.3281 18.9871 19.2765C19.1508 19.1971 19.2147 19.1891 19.9056 19.1891C20.7203 19.1891 20.8559 19.2209 21.0678 19.4512C21.1276 19.5148 23.3439 22.8347 25.9956 26.8336C28.6472 30.8325 32.2733 36.2929 34.0543 38.9733L37.289 43.8461L37.4528 43.7388C38.9023 42.8016 40.4359 41.4673 41.6499 40.0773C44.2336 37.1267 45.899 33.529 46.4581 29.6928C46.6217 28.577 46.6417 28.2473 46.6417 26.7343C46.6417 25.2214 46.6217 24.8917 46.4581 23.7758C45.3479 16.1472 39.8887 9.73776 32.4849 7.36301C31.1791 6.94207 29.7894 6.65217 28.2319 6.47745C27.8485 6.43773 25.2088 6.39404 24.8775 6.42581ZM33.2397 18.7126C33.4313 18.8079 33.5871 18.9906 33.6431 19.1812C33.675 19.2844 33.6829 21.4924 33.675 26.4682L33.6629 33.6084L32.3971 31.6783L31.1272 29.7484V24.5582C31.1272 21.2026 31.1431 19.3162 31.167 19.2249C31.2309 19.0025 31.3707 18.8277 31.5625 18.7245C31.7261 18.6411 31.7861 18.6332 32.413 18.6332C33.0042 18.6332 33.1079 18.6411 33.2397 18.7126Z" fill="white"/>
</g>
</g>
<defs>
<clipPath id="clip0_102_174">
<rect x="0" y="0" width="52" height="52" rx="7" fill="white"/>
</clipPath>
<clipPath id="clip1_102_174">
<rect width="52" height="52" fill="white" transform="translate(0 0)"/>
</clipPath>
</defs>
</svg>
