<svg width="52" height="52" viewBox="0 0 52 52" fill="none" xmlns="http://www.w3.org/2000/svg">
<g clip-path="url(#clip0_102_160)">
<g clip-path="url(#clip1_102_160)">
<rect x="0" y="0" width="52" height="52" fill="#242938"/>
<path d="M26.9794 30.5768C29.0842 30.5768 30.7902 28.8801 30.7902 26.7873C30.7902 24.6945 29.0842 22.9978 26.9794 22.9978C24.8749 22.9978 23.1687 24.6945 23.1687 26.7873C23.1687 28.8801 24.8749 30.5768 26.9794 30.5768Z" fill="#00D8FF"/>
<path fill-rule="evenodd" clip-rule="evenodd" d="M26.9796 19.0824C32.0961 19.0824 36.8491 19.8125 40.4329 21.0394C44.7509 22.5176 47.4057 24.7583 47.4057 26.7873C47.4057 28.9016 44.5922 31.282 39.9551 32.8097C36.4496 33.9647 31.8364 34.5676 26.9796 34.5676C22.0001 34.5676 17.2846 34.0017 13.7395 32.7969C9.25427 31.2725 6.55276 28.8614 6.55276 26.7873C6.55276 24.7747 9.08761 22.5513 13.3449 21.0754C16.942 19.8283 21.8124 19.0824 26.9788 19.0824H26.9796Z" stroke="#00D8FF" stroke-width="1.67081"/>
<path fill-rule="evenodd" clip-rule="evenodd" d="M20.2346 22.957C22.7908 18.5496 25.801 14.8199 28.6603 12.3456C32.105 9.3644 35.3835 8.19688 37.1508 9.21037C38.9926 10.2666 39.6608 13.8797 38.6752 18.6372C37.9307 22.2341 36.1507 26.509 33.7242 30.693C31.2365 34.9826 28.388 38.7619 25.5677 41.2132C21.999 44.3153 18.5489 45.438 16.7421 44.4019C14.9889 43.3972 14.3185 40.1023 15.1596 35.6976C15.8702 31.9757 17.6535 27.4076 20.2338 22.957H20.2346Z" stroke="#00D8FF" stroke-width="1.67081"/>
<path fill-rule="evenodd" clip-rule="evenodd" d="M20.241 30.7041C17.6777 26.3016 15.9325 21.8447 15.204 18.1457C14.3271 13.689 14.9471 10.2815 16.7129 9.26505C18.553 8.20571 22.0344 9.43456 25.687 12.6597C28.4487 15.0981 31.2845 18.7659 33.7179 22.9458C36.2128 27.2313 38.0826 31.5731 38.81 35.2269C39.7304 39.8508 38.9855 43.3838 37.1804 44.4228C35.429 45.4311 32.2239 44.3637 28.8064 41.4391C25.9189 38.9683 22.8296 35.1505 20.241 30.7041Z" stroke="#00D8FF" stroke-width="1.67081"/>
</g>
</g>
<defs>
<clipPath id="clip0_102_160">
<rect x="0" y="0" width="52" height="52" rx="7" fill="white"/>
</clipPath>
<clipPath id="clip1_102_160">
<rect width="52" height="52" fill="white" transform="translate(0 0)"/>
</clipPath>
</defs>
</svg>
