<svg width="52" height="52" viewBox="0 0 52 52" fill="none" xmlns="http://www.w3.org/2000/svg">
<g clip-path="url(#clip0_102_105)">
<g clip-path="url(#clip1_102_105)">
<rect x="0" y="0" width="52" height="52" fill="#CD6799"/>
<mask id="mask0_102_105" style="mask-type:luminance" maskUnits="userSpaceOnUse" x="6" y="11" width="42" height="31">
<path d="M47.2578 11.4931H6.24219V41.9433H47.2578V11.4931Z" fill="white"/>
</mask>
<g mask="url(#mask0_102_105)">
<path d="M41.5373 28.9947C40.1071 29.0021 38.8644 29.3433 37.8236 29.8475C37.4417 29.0985 37.0599 28.4311 36.9924 27.9415C36.9175 27.3706 36.8277 27.022 36.9175 26.3397C37.0074 25.6574 37.4118 24.6861 37.4042 24.6119C37.3968 24.5376 37.3144 24.1892 36.4908 24.1817C35.6672 24.1744 34.956 24.3375 34.8735 24.5526C34.7911 24.7675 34.634 25.257 34.5292 25.7614C34.3869 26.503 32.8818 29.1505 32.0209 30.5373C31.7438 29.9959 31.5043 29.5212 31.4518 29.143C31.3769 28.572 31.2871 28.2235 31.377 27.5412C31.4668 26.8589 31.8712 25.8873 31.8636 25.8132C31.8562 25.7391 31.7738 25.3905 30.9502 25.3832C30.1266 25.3757 29.4152 25.5388 29.3329 25.7539C29.2505 25.969 29.1607 26.4734 28.9884 26.9627C28.8163 27.4522 26.8172 31.8722 26.2931 33.0142C26.0236 33.6 25.7914 34.0672 25.6268 34.3861C25.6268 34.3861 25.6192 34.4084 25.5968 34.4454C25.4545 34.7198 25.3721 34.8681 25.3721 34.8681C25.3721 34.8681 25.3721 34.8681 25.3721 34.8756C25.2599 35.0759 25.1399 35.2611 25.08 35.2611C25.0351 35.2611 24.9529 34.7273 25.095 34.0005C25.3946 32.4653 26.1058 30.0774 26.0984 29.9959C26.0984 29.9515 26.2332 29.5361 25.6341 29.321C25.0501 29.1059 24.8405 29.4619 24.788 29.4619C24.7357 29.4619 24.6982 29.5881 24.6982 29.5881C24.6982 29.5881 25.3497 26.9034 23.4554 26.9034C22.2723 26.9034 20.6401 28.1863 19.8315 29.3433C19.3223 29.6177 18.2367 30.2035 17.0761 30.8338C16.6344 31.0786 16.1777 31.3234 15.7509 31.5533C15.7209 31.5236 15.691 31.4865 15.661 31.4568C13.3699 29.0317 9.13209 27.3188 9.31178 24.0631C9.37917 22.8764 9.79096 19.7618 17.4505 15.9796C23.7548 12.902 28.7714 13.7548 29.6399 15.6459C30.8827 18.3453 26.952 23.3584 20.438 24.0852C17.9522 24.3596 16.6494 23.4104 16.3199 23.0546C15.9755 22.6837 15.9231 22.6615 15.7958 22.7357C15.5862 22.8468 15.7209 23.1805 15.7958 23.3733C15.9905 23.8776 16.7916 24.7675 18.1468 25.205C19.3448 25.5908 22.2573 25.8059 25.7839 24.4561C29.7298 22.9433 32.8145 18.7384 31.9085 15.2157C31.0027 11.6412 25.0128 10.4621 19.3448 12.457C15.9755 13.6436 12.3217 15.5124 9.69363 17.9448C6.57142 20.8371 6.07725 23.3511 6.27941 24.4041C7.00567 28.1418 12.2094 30.5742 14.2908 32.3764C14.186 32.4357 14.0887 32.4877 14.0063 32.5322C12.9656 33.0438 8.99731 35.098 8.00898 37.2711C6.88589 39.7331 8.18869 41.4981 9.04973 41.7353C11.7227 42.4696 14.4706 41.1495 15.9456 38.9692C17.4206 36.7888 17.2409 33.9561 16.5595 32.6583C16.552 32.6435 16.5446 32.6286 16.5296 32.6138C16.7991 32.458 17.0761 32.2949 17.3457 32.1391C17.8773 31.8277 18.4014 31.5385 18.8506 31.301C18.5961 31.9908 18.4089 32.8139 18.319 34.0005C18.2067 35.3948 18.7832 37.2042 19.5395 37.9162C19.8764 38.2276 20.2732 38.2351 20.5278 38.2351C21.4114 38.2351 21.8082 37.5083 22.2499 36.6481C22.7889 35.5949 23.2757 34.3713 23.2757 34.3713C23.2757 34.3713 22.6691 37.6789 24.3163 37.6789C24.9154 37.6789 25.5218 36.9077 25.7914 36.5146C25.7914 36.5219 25.7914 36.5219 25.7914 36.5219C25.7914 36.5219 25.8064 36.4998 25.8364 36.4478C25.8962 36.3513 25.9336 36.292 25.9336 36.292C25.9336 36.292 25.9336 36.2847 25.9336 36.2772C26.1733 35.862 26.7122 34.9201 27.5135 33.3552C28.5467 31.3382 29.5425 28.8168 29.5425 28.8168C29.5425 28.8168 29.6323 29.4323 29.9394 30.4556C30.119 31.0565 30.4935 31.7164 30.7929 32.3542C30.5534 32.688 30.4037 32.8732 30.4037 32.8732C30.4037 32.8732 30.4036 32.8732 30.411 32.8807C30.2164 33.1328 30.0068 33.4072 29.7747 33.6741C28.9585 34.6384 27.9852 35.7434 27.8504 36.0623C27.6931 36.4405 27.7307 36.7147 28.0301 36.9373C28.2473 37.1004 28.6365 37.1226 29.0333 37.1004C29.7671 37.0484 30.2839 36.8705 30.5384 36.7592C30.9352 36.6184 31.3995 36.4033 31.8337 36.0844C32.6349 35.4986 33.1216 34.6605 33.0766 33.5555C33.0541 32.9473 32.8519 32.3394 32.605 31.7682C32.6798 31.6644 32.7471 31.5606 32.8219 31.4568C34.0875 29.625 35.0682 27.6153 35.0682 27.6153C35.0682 27.6153 35.158 28.2308 35.465 29.2543C35.6147 29.7733 35.9217 30.337 36.1914 30.8858C35.0009 31.8426 34.2671 32.9549 34.005 33.6816C33.5334 35.0314 33.9002 35.6394 34.5965 35.7803C34.9111 35.8472 35.3602 35.6989 35.6897 35.5579C36.1089 35.4245 36.6032 35.1945 37.0748 34.8533C37.8759 34.2675 38.6472 33.4517 38.6023 32.3467C38.5797 31.8426 38.445 31.3455 38.2577 30.8635C39.2686 30.4483 40.5714 30.2184 42.2336 30.4111C45.7976 30.8265 46.5015 33.029 46.3665 33.9561C46.2318 34.8829 45.483 35.3873 45.2359 35.5431C44.989 35.6989 44.9066 35.7507 44.9291 35.862C44.9591 36.0251 45.0788 36.0176 45.2884 35.9879C45.5805 35.9361 47.1602 35.239 47.2276 33.5334C47.34 31.353 45.2435 28.9724 41.5373 28.9947ZM14.0438 38.1758C12.8608 39.4512 11.2136 39.9334 10.5023 39.5255C9.73857 39.0878 10.0381 37.2042 11.4906 35.8545C12.3741 35.0314 13.5122 34.2675 14.2684 33.8003C14.4406 33.6965 14.6952 33.5482 15.0022 33.3627C15.0546 33.3331 15.0845 33.3183 15.0845 33.3183C15.1444 33.2811 15.2043 33.2441 15.2642 33.2069C15.7958 35.1352 15.2867 36.8335 14.0438 38.1758ZM22.6542 32.3764C22.2424 33.3703 21.3814 35.9138 20.8572 35.773C20.408 35.6542 20.131 33.7261 20.7674 31.8202C21.0894 30.8635 21.7707 29.7215 22.1675 29.2765C22.8115 28.5645 23.5227 28.3273 23.6949 28.6165C23.9121 28.9947 22.9089 31.7534 22.6542 32.3764ZM29.7597 35.7434C29.5874 35.8323 29.4228 35.8916 29.3479 35.8472C29.2954 35.8175 29.4228 35.6989 29.4228 35.6989C29.4228 35.6989 30.3138 34.7495 30.6657 34.3195C30.8677 34.0672 31.1075 33.7706 31.362 33.4369C31.362 33.4665 31.362 33.5037 31.362 33.5334C31.362 34.668 30.2539 35.4318 29.7597 35.7434ZM35.2404 34.5047C35.1131 34.4157 35.1356 34.1192 35.5624 33.1921C35.7271 32.8287 36.1165 32.2208 36.7828 31.6348C36.8577 31.8722 36.9102 32.1019 36.9026 32.3171C36.8952 33.7485 35.8618 34.2823 35.2404 34.5047Z" fill="white"/>
</g>
</g>
</g>
<defs>
<clipPath id="clip0_102_105">
<rect x="0" y="0" width="52" height="52" rx="7" fill="white"/>
</clipPath>
<clipPath id="clip1_102_105">
<rect width="52" height="52" fill="white" transform="translate(0 0)"/>
</clipPath>
</defs>
</svg>
