<svg width="52" height="52" viewBox="0 0 52 52" fill="none" xmlns="http://www.w3.org/2000/svg">
<g clip-path="url(#clip0_102_180)">
<g clip-path="url(#clip1_102_180)">
<rect x="0" y="0" width="52" height="52" fill="#FF3E00"/>
<mask id="mask0_102_180" style="mask-type:luminance" maskUnits="userSpaceOnUse" x="11" y="8" width="31" height="38">
<path d="M41.6986 8.44615H11.1316V45.0086H41.6986V8.44615Z" fill="white"/>
</mask>
<g mask="url(#mask0_102_180)">
<path d="M39.7356 13.2798C36.3393 8.41516 29.5777 6.98985 24.717 10.0574L16.1482 15.5107C13.8113 16.967 12.191 19.3529 11.7236 22.0486C11.3186 24.3106 11.6613 26.6343 12.7519 28.6485C12.0041 29.7639 11.5055 31.0033 11.2874 32.3048C10.7889 35.0624 11.4432 37.913 13.0635 40.1748C16.491 45.0397 23.2212 46.4648 28.0821 43.3974L36.6508 37.975C38.9878 36.5186 40.608 34.1329 41.0754 31.437C41.4804 29.1752 41.1377 26.8513 40.0471 24.8373C40.7949 23.7217 41.2935 22.4825 41.5117 21.1811C42.0413 18.3924 41.3871 15.5417 39.7356 13.2798Z" fill="white"/>
<path d="M23.8757 40.6396C21.1026 41.3523 18.2047 40.2679 16.5844 37.9439C15.5873 36.5805 15.2134 34.8765 15.4939 33.2032C15.5562 32.9243 15.6185 32.6765 15.6808 32.3976L15.8366 31.902L16.2728 32.2117C17.3011 32.9554 18.4228 33.5131 19.638 33.8849L19.9496 33.9779L19.9184 34.2877C19.8873 34.7215 20.0119 35.1863 20.2612 35.5582C20.7598 36.2708 21.6322 36.6116 22.4734 36.3947C22.6605 36.3327 22.8474 36.2708 23.0033 36.1777L31.5407 30.7553C31.977 30.4766 32.2575 30.0738 32.3508 29.578C32.4444 29.0822 32.3198 28.5555 32.0393 28.1527C31.5407 27.4399 30.6683 27.1302 29.8269 27.3471C29.64 27.409 29.4531 27.471 29.2973 27.564L26.0256 29.64C25.4959 29.9808 24.9039 30.2286 24.2807 30.3836C21.5076 31.0962 18.6098 30.0117 16.9895 27.6879C16.0236 26.3246 15.6185 24.6204 15.9301 22.9472C16.2105 21.336 17.2076 19.8796 18.6098 19.0121L27.1784 13.5897C27.7081 13.2488 28.3003 13.001 28.9235 12.815C31.6966 12.1024 34.5943 13.1869 36.2147 15.5107C37.2117 16.8741 37.5855 18.5783 37.3053 20.2515C37.2428 20.5303 37.1805 20.7782 37.0871 21.0571L36.9313 21.5528L36.4949 21.243C35.4669 20.4993 34.3451 19.9416 33.1299 19.5698L32.8182 19.4768L32.8494 19.167C32.8807 18.7332 32.7559 18.2684 32.5067 17.8966C32.0081 17.1839 31.1357 16.8741 30.2945 17.091C30.1074 17.153 29.9205 17.2149 29.7646 17.3079L21.2272 22.7303C20.7909 23.0092 20.5105 23.412 20.417 23.9078C20.3235 24.4034 20.4481 24.9303 20.7286 25.3331C21.2272 26.0457 22.0996 26.3554 22.941 26.1387C23.1279 26.0768 23.3148 26.0146 23.4706 25.9218L26.7423 23.8458C27.272 23.505 27.8639 23.257 28.4872 23.0711C31.2603 22.3584 34.1582 23.4428 35.7784 25.7668C36.7754 27.1302 37.1494 28.8344 36.869 30.5075C36.5885 32.1187 35.5915 33.5751 34.1892 34.4426L25.6205 39.8651C25.0908 40.2059 24.4989 40.4537 23.8757 40.6396Z" fill="#FF3E00"/>
</g>
</g>
</g>
<defs>
<clipPath id="clip0_102_180">
<rect x="0" y="0" width="52" height="52" rx="7" fill="white"/>
</clipPath>
<clipPath id="clip1_102_180">
<rect width="52" height="52" fill="white" transform="translate(0 0)"/>
</clipPath>
</defs>
</svg>
