<svg width="52" height="52" viewBox="0 0 52 52" fill="none" xmlns="http://www.w3.org/2000/svg">
<g clip-path="url(#clip0_102_146)">
<g clip-path="url(#clip1_102_146)">
<rect x="0" y="0" width="52" height="52" fill="#007ACC"/>
<path d="M12.4432 26.8999L12.4265 29.0294H15.8359H19.2453V38.6454V48.2611H21.6569H24.0683V38.6454V29.0294H27.4777H30.887V26.9411C30.887 25.7855 30.8622 24.8199 30.8289 24.7951C30.8039 24.7622 26.6544 24.7455 21.6235 24.7538L12.4681 24.7786L12.4432 26.8999Z" fill="white"/>
<path d="M43.1303 24.7181C44.4606 25.0484 45.4752 25.6344 46.4066 26.5917C46.8889 27.1036 47.6039 28.0363 47.6622 28.2592C47.6788 28.3252 45.4003 29.844 44.02 30.694C43.9701 30.7271 43.7704 30.5124 43.5459 30.1824C42.8724 29.2084 42.1656 28.7873 41.0845 28.7132C39.4963 28.6057 38.4735 29.4312 38.4818 30.8096C38.4818 31.214 38.54 31.4533 38.7063 31.7836C39.0555 32.5016 39.7042 32.9308 41.7416 33.8057C45.4918 35.4071 47.0966 36.4636 48.0946 37.9657C49.2089 39.6413 49.4584 42.3156 48.7016 44.3048C47.8702 46.4673 45.8078 47.9365 42.9056 48.4236C42.0076 48.5804 39.8787 48.5556 38.9143 48.3824C36.8103 48.0108 34.8147 46.9792 33.584 45.6255C33.1016 45.0972 32.1619 43.7188 32.2202 43.6197C32.245 43.5868 32.4613 43.4548 32.7024 43.3144C32.9353 43.1824 33.8169 42.6788 34.6483 42.2001L36.1534 41.3333L36.4694 41.7956C36.9102 42.4641 37.8747 43.3804 38.4569 43.6857C40.1282 44.5608 42.4234 44.4369 43.5543 43.43C44.0366 42.9924 44.2361 42.5385 44.2361 41.87C44.2361 41.2673 44.1612 41.0032 43.8453 40.5493C43.4378 39.9716 42.6064 39.4845 40.2446 38.4693C37.5421 37.3137 36.3779 36.5956 35.3136 35.4565C34.6982 34.7963 34.116 33.7397 33.875 32.8565C33.6754 32.122 33.6255 30.2813 33.7835 29.5385C34.3405 26.9468 36.3114 25.1392 39.1553 24.6025C40.0785 24.4293 42.2237 24.4953 43.1303 24.7181Z" fill="white"/>
</g>
</g>
<defs>
<clipPath id="clip0_102_146">
<rect x="0" y="0" width="52.3881" height="52" rx="7" fill="white"/>
</clipPath>
<clipPath id="clip1_102_146">
<rect width="52" height="52" fill="white" transform="translate(0 0)"/>
</clipPath>
</defs>
</svg>
