<svg width="40" height="25" viewBox="0 0 40 25" fill="none" xmlns="http://www.w3.org/2000/svg">
<path d="M11.254 9.2922C11.254 9.77566 11.3063 10.166 11.3977 10.4518C11.5023 10.7393 11.6329 11.0529 11.8159 11.3926C11.8812 11.4955 11.9073 11.6001 11.9073 11.6915C11.9073 11.8222 11.8289 11.9529 11.6591 12.0835L10.8375 12.6307C10.7382 12.7023 10.6201 12.7432 10.4978 12.7483C10.3671 12.7483 10.2364 12.6829 10.1074 12.5653C9.93196 12.3766 9.77499 12.1715 9.63866 11.9529C9.49265 11.7024 9.35751 11.4457 9.2336 11.1836C8.21768 12.3824 6.93881 12.9818 5.40023 12.9818C4.30592 12.9818 3.4321 12.6699 2.79348 12.0443C2.15486 11.4171 1.82983 10.5841 1.82983 9.54046C1.82983 8.43308 2.22019 7.5315 3.01561 6.85531C3.81103 6.17749 4.86614 5.83776 6.20872 5.83776C6.65298 5.83776 7.10867 5.87696 7.5905 5.94229C8.07395 6.00763 8.57048 6.11216 9.08987 6.22976V5.27754C9.08987 4.28612 8.88244 3.59524 8.47738 3.19181C8.06089 2.78675 7.35693 2.59239 6.35408 2.59239C5.89676 2.59239 5.42637 2.64302 4.94454 2.76062C4.46272 2.87822 3.99233 3.02195 3.53663 3.20488C3.38806 3.2714 3.23529 3.32814 3.07931 3.37474C3.01213 3.39639 2.94238 3.40902 2.87188 3.41231C2.68895 3.41231 2.59748 3.28164 2.59748 3.00888V2.37026C2.59748 2.16119 2.62362 2.0044 2.68895 1.91293C2.78761 1.79435 2.913 1.70087 3.05481 1.64017C3.5105 1.40497 4.05766 1.20898 4.69628 1.05218C5.36107 0.88199 6.04518 0.799083 6.73138 0.805552C8.28302 0.805552 9.41653 1.15835 10.1466 1.8623C10.8636 2.56462 11.2279 3.63443 11.2279 5.06848V9.2922H11.254ZM5.96209 11.275C6.39165 11.275 6.83428 11.1966 7.30467 11.0398C7.77343 10.883 8.19155 10.5972 8.54271 10.2069C8.75178 9.95859 8.90857 9.68419 8.98697 9.3706C9.06374 9.05864 9.11763 8.67971 9.11763 8.23709V7.68993C8.72195 7.59347 8.32116 7.51931 7.91716 7.4678C7.51086 7.41618 7.10174 7.39 6.69218 7.3894C5.81836 7.3894 5.17974 7.55927 4.74855 7.91206C4.31899 8.26322 4.11156 8.75811 4.11156 9.4098C4.11156 10.0223 4.26672 10.4796 4.59338 10.7916C4.90534 11.1182 5.36104 11.275 5.96209 11.275ZM16.4316 12.6829C16.1964 12.6829 16.0396 12.6437 15.935 12.5523C15.8305 12.4739 15.7391 12.2909 15.6607 12.0443L12.5982 1.9652C12.5386 1.7962 12.4992 1.62077 12.4806 1.44254C12.4806 1.23348 12.5851 1.11588 12.7926 1.11588H14.0714C14.3181 1.11588 14.4879 1.15671 14.5778 1.24654C14.6839 1.32494 14.7623 1.50787 14.8391 1.75614L17.031 10.3865L19.0645 1.75614C19.1298 1.49481 19.2082 1.32494 19.3111 1.24654C19.4678 1.15045 19.6503 1.10483 19.8337 1.11588H20.8758C21.1241 1.11588 21.2939 1.15671 21.3985 1.24654C21.5013 1.32494 21.5944 1.50787 21.6451 1.75614L23.7047 10.491L25.9603 1.75614C26.0387 1.49481 26.1301 1.32494 26.2216 1.24654C26.3729 1.15049 26.5507 1.10475 26.7296 1.11588H27.9431C28.1505 1.11588 28.2698 1.22204 28.2698 1.44254C28.2698 1.50787 28.2551 1.5732 28.242 1.6516C28.2215 1.76305 28.1909 1.8724 28.1505 1.97826L25.0097 12.0558C24.9313 12.3171 24.8398 12.4853 24.7353 12.5637C24.5881 12.6581 24.415 12.7038 24.2404 12.6944H23.1183C22.8717 12.6944 22.7018 12.6552 22.5957 12.5637C22.4928 12.4722 22.4013 12.3024 22.3507 12.0411L20.3286 3.6328L18.3197 12.028C18.2543 12.2893 18.1776 12.4592 18.0747 12.5506C17.9685 12.6421 17.7856 12.6813 17.552 12.6813L16.4316 12.6829ZM33.1827 13.0341C32.5049 13.0341 31.8271 12.9557 31.1754 12.8005C30.5237 12.6437 30.0158 12.4739 29.676 12.2779C29.467 12.1619 29.3249 12.0313 29.2726 11.9137C29.2217 11.7984 29.195 11.6738 29.1942 11.5478V10.883C29.1942 10.6103 29.2987 10.4796 29.4931 10.4796C29.5715 10.4796 29.6499 10.4927 29.7283 10.5188C29.8067 10.5449 29.9243 10.5972 30.055 10.6495C30.4976 10.8455 30.9794 11.0006 31.489 11.1052C32.01 11.2097 32.518 11.262 33.0406 11.262C33.8606 11.262 34.5008 11.1182 34.9434 10.8308C35.1556 10.7026 35.3301 10.5205 35.4492 10.3031C35.5682 10.0856 35.6276 9.84055 35.6213 9.59273C35.626 9.42488 35.5975 9.25775 35.5372 9.10103C35.4769 8.9443 35.3861 8.8011 35.2701 8.67971C35.0349 8.43308 34.5906 8.21095 33.952 8.00189L32.0623 7.4139C31.1101 7.11501 30.4061 6.67238 29.9766 6.08602C29.5561 5.54488 29.3265 4.87992 29.3232 4.19466C29.3232 3.6475 29.4425 3.16568 29.676 2.74755C29.9112 2.33106 30.2232 1.9652 30.6152 1.67937C31.0072 1.37884 31.4482 1.15671 31.9708 1.00155C32.4935 0.844751 33.0406 0.779419 33.6139 0.779419C33.8998 0.779419 34.2003 0.792485 34.4878 0.831685C34.7866 0.870884 35.0594 0.92315 35.3338 0.975415C35.5951 1.04075 35.8434 1.10608 36.077 1.18285C36.3122 1.26124 36.4951 1.33964 36.6257 1.41804C36.7797 1.49553 36.9138 1.60728 37.0177 1.7447C37.1019 1.87154 37.1426 2.02229 37.1337 2.17426V2.78675C37.1337 3.06115 37.0292 3.20488 36.8332 3.20488C36.6597 3.18498 36.4916 3.13174 36.3383 3.04808C35.5507 2.70014 34.697 2.52685 33.8361 2.54012C33.0929 2.54012 32.5049 2.65609 32.1015 2.90435C31.6964 3.15261 31.489 3.5299 31.489 4.06399C31.489 4.42985 31.6197 4.74345 31.881 4.99008C32.1407 5.23834 32.6225 5.4866 33.3134 5.70873L35.1656 6.29345C36.1031 6.59398 36.7825 7.01211 37.186 7.5462C37.5894 8.08029 37.7854 8.69278 37.7854 9.3706C37.7854 9.93082 37.6678 10.4404 37.4473 10.883C37.2121 11.3273 36.8985 11.7177 36.4951 12.0313C36.09 12.3579 35.6082 12.5915 35.048 12.7613C34.46 12.9426 33.8491 13.0341 33.1827 13.0341ZM35.6474 19.3713C31.3583 22.5399 25.1257 24.2206 19.7684 24.2206C12.2585 24.2206 5.49333 21.444 0.38109 16.8283C-0.022336 16.464 0.341891 15.9675 0.825349 16.255C6.35245 19.4612 13.1715 21.4048 20.2241 21.4048C24.9836 21.4048 30.2101 20.4134 35.0218 18.3799C35.7389 18.0532 36.3514 18.8487 35.6474 19.3713ZM37.4342 17.3362C36.8854 16.6339 33.8083 16.9981 32.4135 17.168C31.997 17.2203 31.9316 16.8544 32.3106 16.58C34.7605 14.8601 38.7899 15.355 39.2586 15.9283C39.7274 16.5163 39.128 20.544 36.8332 22.473C36.482 22.7735 36.1423 22.6167 36.2991 22.2263C36.8217 20.936 37.9814 18.0287 37.4342 17.3362Z" fill="#5499EB"/>
</svg>
