<svg width="37" height="41" viewBox="0 0 37 41" fill="none" xmlns="http://www.w3.org/2000/svg">
<path d="M18.9372 0.900024C17.5488 0.900024 16.4232 2.02555 16.4232 3.41405C16.4232 4.80255 17.5487 5.92824 18.9372 5.92824C19.909 5.92824 20.7502 5.37617 21.1686 4.56931C24.7959 6.63956 27.4521 13.5082 27.4521 21.4944C27.4521 24.8778 26.9799 28.1192 26.1046 30.9163C26.0839 30.9821 26.0765 31.0513 26.0826 31.12C26.0887 31.1887 26.1083 31.2556 26.1403 31.3167C26.1722 31.3778 26.2159 31.432 26.2689 31.4763C26.3218 31.5205 26.3829 31.5539 26.4487 31.5745C26.5818 31.6161 26.7259 31.6031 26.8495 31.5385C26.973 31.4738 27.0658 31.3628 27.1074 31.2297C28.0153 28.3284 28.5026 24.9821 28.5026 21.4944C28.5026 13.013 25.6089 5.67393 21.4457 3.52332C21.4473 3.4869 21.4514 3.45096 21.4514 3.41405C21.4514 2.02572 20.3258 0.900024 18.9372 0.900024ZM18.9372 1.95058C19.3253 1.95058 19.6976 2.10477 19.972 2.37922C20.2465 2.65368 20.4007 3.02592 20.4007 3.41405C20.4007 3.80219 20.2465 4.17442 19.972 4.44888C19.6976 4.72333 19.3253 4.87752 18.9372 4.87752C18.549 4.87752 18.1768 4.72333 17.9024 4.44888C17.6279 4.17442 17.4737 3.80219 17.4737 3.41405C17.4737 3.02592 17.6279 2.65368 17.9024 2.37922C18.1768 2.10477 18.549 1.95058 18.9372 1.95058ZM9.97672 8.98241C6.60062 8.9945 4.01946 10.0679 2.80883 12.165C1.60425 14.2514 1.94856 17.0176 3.64396 19.9744C3.71489 20.092 3.82906 20.1772 3.96202 20.2117C4.09498 20.2462 4.23616 20.2272 4.35531 20.1589C4.47447 20.0906 4.56213 19.9783 4.59952 19.8461C4.63691 19.7139 4.62106 19.5724 4.55536 19.4518C3.02835 16.7881 2.73109 14.4012 3.71893 12.6902C5.05989 10.3676 8.67283 9.49675 13.408 10.3593C13.4759 10.3717 13.5455 10.3706 13.613 10.356C13.6804 10.3414 13.7443 10.3138 13.8011 10.2745C13.8578 10.2353 13.9063 10.1852 13.9437 10.1272C13.9811 10.0693 14.0067 10.0045 14.0191 9.9366C14.0314 9.86873 14.0303 9.79908 14.0157 9.73164C14.0012 9.6642 13.9735 9.60028 13.9342 9.54354C13.895 9.4868 13.845 9.43835 13.787 9.40095C13.729 9.36355 13.6642 9.33794 13.5963 9.32557C12.3158 9.09233 11.1019 8.97833 9.97672 8.98241ZM28.0286 9.01116C27.8893 9.00934 27.755 9.06294 27.6552 9.16016C27.5554 9.25738 27.4983 9.39026 27.4965 9.52958C27.4947 9.66889 27.5483 9.80322 27.6455 9.90302C27.7427 10.0028 27.8756 10.0599 28.0149 10.0617C31.01 10.1008 33.1691 11.0345 34.1403 12.7169C35.4783 15.0346 34.4339 18.5882 31.3339 22.2506C31.2439 22.3571 31.1998 22.4948 31.2114 22.6337C31.2229 22.7726 31.2891 22.9012 31.3954 22.9913C31.4481 23.0359 31.509 23.0697 31.5747 23.0907C31.6404 23.1117 31.7096 23.1196 31.7783 23.1139C31.847 23.1082 31.914 23.089 31.9753 23.0574C32.0366 23.0258 32.0911 22.9824 32.1357 22.9298C35.4897 18.9673 36.6613 14.9818 35.0503 12.1916C33.865 10.1385 31.359 9.05444 28.0286 9.01116ZM23.6213 9.48874C23.5857 9.48909 23.5503 9.49303 23.5156 9.5005C20.4828 10.1504 17.2545 11.4205 14.1543 13.2105C6.69012 17.5198 1.75337 23.8186 2.1328 28.5176C1.36088 28.9468 0.837891 29.7694 0.837891 30.7152C0.837891 32.1036 1.96358 33.2292 3.35208 33.2292C4.74041 33.2292 5.86611 32.1037 5.86611 30.7152C5.86611 29.3267 4.74058 28.201 3.35208 28.201C3.29001 28.201 3.22893 28.2059 3.16784 28.2103C3.00418 24.0295 7.64873 18.1797 14.6796 14.1204C17.687 12.3842 20.8129 11.1538 23.7356 10.5275C23.8624 10.4999 23.9745 10.4262 24.0502 10.3208C24.126 10.2154 24.1601 10.0857 24.1459 9.9567C24.1317 9.82768 24.0702 9.70848 23.9733 9.62207C23.8765 9.53567 23.7511 9.48818 23.6213 9.48874ZM18.9194 19.6749C18.7962 19.6764 18.6734 19.6903 18.553 19.7165C17.5711 19.929 16.9475 20.8966 17.1593 21.8787C17.372 22.8607 18.3395 23.4846 19.3215 23.2724C20.3035 23.0598 20.9274 22.0922 20.7152 21.1102C20.5292 20.2511 19.7653 19.6657 18.9194 19.6749ZM6.72132 22.6903C6.65234 22.687 6.58338 22.6973 6.51841 22.7207C6.45344 22.7442 6.39373 22.7802 6.34271 22.8267C6.29168 22.8731 6.2503 22.9291 6.22092 22.9915C6.19155 23.0539 6.17476 23.1215 6.17151 23.1904C6.16826 23.2593 6.17863 23.3281 6.202 23.393C6.22538 23.4579 6.26132 23.5176 6.30776 23.5686C8.37915 25.8448 11.0701 27.9802 14.1389 29.7519C21.3495 33.9151 29.0114 35.1172 33.0216 32.7559C33.4478 33.0639 33.9602 33.2296 34.486 33.2294C35.8745 33.2294 37.0001 32.1039 37.0001 30.7154C37.0001 29.3269 35.8747 28.2012 34.486 28.2012C33.0977 28.2012 31.972 29.3269 31.972 30.7154C31.972 31.1662 32.0924 31.5882 32.3003 31.9541C28.6338 33.937 21.4697 32.7711 14.6642 28.8419C11.687 27.123 9.08149 25.0557 7.0849 22.8617C7.03857 22.8106 6.9826 22.7691 6.9202 22.7397C6.85781 22.7103 6.79022 22.6935 6.72132 22.6903ZM3.35208 29.2518C3.54427 29.2518 3.73457 29.2896 3.91213 29.3631C4.08968 29.4367 4.25101 29.5445 4.38691 29.6804C4.5228 29.8163 4.6306 29.9776 4.70415 30.1552C4.77769 30.3327 4.81555 30.523 4.81555 30.7152C4.81555 30.9074 4.77769 31.0977 4.70415 31.2753C4.6306 31.4528 4.5228 31.6141 4.38691 31.75C4.25101 31.8859 4.08968 31.9937 3.91213 32.0673C3.73457 32.1408 3.54427 32.1787 3.35208 32.1787C3.1599 32.1787 2.96959 32.1408 2.79204 32.0673C2.61448 31.9937 2.45315 31.8859 2.31725 31.75C2.18136 31.6141 2.07356 31.4528 2.00001 31.2753C1.92647 31.0977 1.88861 30.9074 1.88861 30.7152C1.88861 30.523 1.92647 30.3327 2.00001 30.1552C2.07356 29.9776 2.18136 29.8163 2.31725 29.6804C2.45315 29.5445 2.61448 29.4367 2.79204 29.3631C2.96959 29.2896 3.1599 29.2518 3.35208 29.2518ZM34.486 29.2518C34.6782 29.2518 34.8685 29.2896 35.0461 29.3631C35.2236 29.4367 35.385 29.5445 35.5209 29.6804C35.6567 29.8163 35.7645 29.9776 35.8381 30.1552C35.9116 30.3327 35.9495 30.523 35.9495 30.7152C35.9495 30.9074 35.9116 31.0977 35.8381 31.2753C35.7645 31.4528 35.6567 31.6141 35.5209 31.75C35.385 31.8859 35.2236 31.9937 35.0461 32.0673C34.8685 32.1408 34.6782 32.1787 34.486 32.1787C34.1339 32.179 33.7936 32.0517 33.5282 31.8203C33.5242 31.8138 33.5219 31.8068 33.5175 31.8002C33.4763 31.7401 33.4231 31.6893 33.3612 31.651C33.1834 31.4372 33.0702 31.1773 33.0348 30.9015C32.9994 30.6258 33.0433 30.3457 33.1613 30.094C33.2793 29.8423 33.4666 29.6294 33.7012 29.4802C33.9358 29.3311 34.208 29.2518 34.486 29.2518ZM11.612 31.4862C11.5254 31.4813 11.439 31.4979 11.3604 31.5346C11.2818 31.5712 11.2135 31.6268 11.1616 31.6963C11.1098 31.7658 11.0759 31.8471 11.0631 31.9328C11.0503 32.0186 11.0589 32.1062 11.0882 32.1878C12.8419 37.0849 15.7112 40.1 18.9372 40.1C21.2902 40.1 23.4672 38.4958 25.1648 35.6721C25.2003 35.6129 25.2239 35.5474 25.2341 35.4792C25.2443 35.4109 25.241 35.3414 25.2243 35.2744C25.2076 35.2075 25.1779 35.1445 25.1368 35.0891C25.0958 35.0336 25.0442 34.9868 24.9851 34.9513C24.8656 34.8795 24.7226 34.8582 24.5874 34.8919C24.4521 34.9256 24.3358 35.0115 24.264 35.1309C22.7384 37.6686 20.8647 39.0493 18.9372 39.0493C16.2574 39.0493 13.6983 36.36 12.0772 31.8334C12.0424 31.7362 11.9797 31.6514 11.8969 31.5897C11.8142 31.5279 11.7151 31.4919 11.612 31.4862Z" fill="#5499EB"/>
</svg>
