<svg width="40" height="41" viewBox="0 0 40 41" fill="none" xmlns="http://www.w3.org/2000/svg">
<path d="M38.4578 18.7526L21.3424 1.63881C20.3559 0.653926 18.7585 0.653926 17.7687 1.63881L14.2228 5.19125L18.7307 9.69917C19.7842 9.34801 20.9831 9.58484 21.816 10.4195C22.6588 11.2606 22.8908 12.4742 22.5314 13.5227L26.8728 17.8673C27.9262 17.5031 29.1382 17.7399 29.976 18.5778C31.1537 19.7538 31.1537 21.655 29.976 22.8309C28.8017 24.0053 26.9038 24.0053 25.7294 22.8309C24.8491 21.9473 24.6286 20.6472 25.0696 19.5709L21.0043 15.5268V26.1841C21.2918 26.3246 21.5629 26.5157 21.8013 26.7525C22.9659 27.9301 22.9659 29.828 21.8013 30.9991C20.627 32.1767 18.716 32.1767 17.5401 30.9991C16.3657 29.8247 16.3657 27.9301 17.5401 26.7558C17.8373 26.4618 18.1721 26.2396 18.5282 26.0926V15.3308C18.1738 15.1822 17.8357 14.9682 17.5482 14.6758C16.6581 13.7857 16.4441 12.484 16.9014 11.3945L12.4719 6.94378L0.734987 18.6725C-0.244996 19.6607 -0.244996 21.2597 0.734987 22.2478L17.852 39.36C18.8385 40.3465 20.4359 40.3465 21.4224 39.36L38.4578 22.3246C39.4459 21.3397 39.4459 19.7407 38.4578 18.7526Z" fill="#5499EB"/>
</svg>
