<svg width="40" height="41" viewBox="0 0 40 41" fill="none" xmlns="http://www.w3.org/2000/svg">
<path d="M0.629883 0.900391H39.8292V40.0997H0.629883V0.900391ZM36.6181 30.7507C36.3323 28.9622 35.1677 27.4596 31.7133 26.0582C30.5112 25.4947 29.1751 25.1027 28.7783 24.1962C28.6296 23.6572 28.6068 23.3632 28.7031 23.0447C28.9481 21.9896 30.1976 21.6728 31.1776 21.9668C31.8146 22.1627 32.4026 22.6527 32.7717 23.4367C34.4605 22.3326 34.4605 22.3326 35.6381 21.5993C35.1971 20.9133 34.9783 20.6176 34.681 20.3253C33.652 19.1738 32.2817 18.5858 30.0522 18.6364L28.9007 18.7818C27.7966 19.0513 26.7448 19.6393 26.1078 20.4233C24.2458 22.5319 24.7832 26.2068 27.0371 27.7258C29.2666 29.3918 32.5267 29.7576 32.9432 31.3272C33.3352 33.2382 31.5222 33.8507 29.7321 33.6302C28.4075 33.3362 27.6741 32.6731 26.8657 31.4481L23.8767 33.1647C24.2197 33.9487 24.6117 34.29 25.1997 34.976C28.0416 37.8441 35.1465 37.6971 36.4221 33.3362C36.4695 33.1892 36.8141 32.1847 36.543 30.6412L36.6181 30.7507ZM21.9461 18.9174H18.2745C18.2745 22.0827 18.2598 25.2285 18.2598 28.3987C18.2598 30.4109 18.3627 32.2582 18.0344 32.8266C17.4954 33.9519 16.1071 33.8082 15.4766 33.6106C14.8298 33.2905 14.5015 32.8495 14.121 32.2141C14.0181 32.0426 13.9413 31.894 13.9135 31.894L10.9328 33.7314C11.4309 34.7604 12.1577 35.6457 13.0953 36.2092C14.4917 37.0422 16.3684 37.3116 18.3333 36.8707C19.6121 36.5015 20.7146 35.742 21.2912 34.5661C22.1242 33.0471 21.9478 31.1851 21.9396 29.101C21.9592 25.7462 21.9396 22.3898 21.9396 19.0088L21.9461 18.9174Z" fill="#5499EB"/>
</svg>
