<svg width="40" height="39" viewBox="0 0 40 39" fill="none" xmlns="http://www.w3.org/2000/svg">
<path d="M19.0273 -0.00012207C18.7408 -0.00012207 18.5239 0.00199045 18.4449 0.0107655C18.3611 0.0193781 18.0941 0.0448908 17.8541 0.064066C12.3147 0.563433 7.1262 3.55183 3.83994 8.14493C2.01001 10.699 0.839673 13.5957 0.397669 16.6644C0.241343 17.7353 0.222168 18.0517 0.222168 19.5039C0.222168 20.9562 0.241668 21.2726 0.397669 22.3438C1.45718 29.6661 6.66876 35.8183 13.7369 38.0975C15.0026 38.5055 16.3369 38.7837 17.8542 38.9515C18.4451 39.0164 20.9993 39.0164 21.5901 38.9515C24.2092 38.6617 26.4281 38.0138 28.6162 36.8969C28.9518 36.7253 29.0166 36.6797 28.9709 36.6413C28.9404 36.6187 27.5105 34.7014 25.7952 32.3838L22.6768 28.1718L18.7691 22.3895C16.619 19.2103 14.8501 16.6109 14.8348 16.6109C14.8195 16.6067 14.8044 19.1763 14.7966 22.3131C14.7857 27.806 14.7815 28.027 14.7127 28.1567C14.6136 28.3435 14.5372 28.4196 14.3773 28.5034C14.2555 28.5642 14.1485 28.5757 13.573 28.5757H12.9132L12.738 28.4652C12.6294 28.3972 12.5411 28.3011 12.4826 28.187L12.4025 28.0154L12.4111 20.373L12.422 12.7267L12.5399 12.578C12.601 12.4979 12.7307 12.3952 12.822 12.3456C12.9784 12.2692 13.0395 12.2616 13.6989 12.2616C14.4768 12.2616 14.6063 12.292 14.8083 12.513C14.8657 12.5742 16.9814 15.7609 19.5127 19.5993C22.0756 23.4845 24.6401 27.3686 27.2062 31.2517L30.294 35.9288L30.45 35.8259C31.8342 34.9263 33.2979 33.6455 34.4568 32.3115C36.9234 29.4792 38.5133 26.0259 39.047 22.3437C39.2032 21.2726 39.2222 20.9559 39.2222 19.5039C39.2222 18.0517 39.2027 17.7353 39.047 16.6641C37.9872 9.34175 32.7757 3.18962 25.7077 0.910373C24.461 0.506232 23.1344 0.227867 21.6476 0.0601659C21.373 0.0315657 19.8866 0.000527935 19.0273 -0.00012207ZM25.6387 11.7276C26.203 11.7276 26.302 11.7362 26.4279 11.804C26.6111 11.8953 26.7595 12.0708 26.8131 12.2536C26.8433 12.3527 26.8511 14.4722 26.8433 19.2483L26.8324 26.1018L25.6241 24.2493L24.4116 22.3968V17.4145C24.4116 14.1937 24.4267 12.383 24.4497 12.2954C24.5106 12.082 24.644 11.9142 24.8271 11.8152C24.9833 11.7349 25.04 11.7276 25.6387 11.7276Z" fill="#5499EB"/>
</svg>
