<svg width="36" height="41" viewBox="0 0 36 41" fill="none" xmlns="http://www.w3.org/2000/svg">
<path d="M18.0993 40.0999C17.575 40.0999 17.0523 39.9627 16.5934 39.6964L11.798 36.8594C11.0826 36.4592 11.4321 36.3171 11.6673 36.2338C12.6228 35.9023 12.8155 35.8255 13.8364 35.2473C13.9425 35.1869 14.083 35.2097 14.1924 35.2751L17.8771 37.4621C18.0111 37.5356 18.1989 37.5356 18.3214 37.4621L32.6863 29.1714C32.8203 29.0947 32.9052 28.9411 32.9052 28.7827V12.2047C32.9052 12.043 32.8186 11.8911 32.6814 11.8094L18.323 3.52527C18.1907 3.44851 18.0143 3.44851 17.8804 3.52527L3.5253 11.811C3.38647 11.8911 3.29827 12.0479 3.29827 12.2047V28.7827C3.29827 28.9411 3.38647 29.0914 3.5253 29.1665L7.45993 31.4401C9.59466 32.5083 10.9029 31.2506 10.9029 29.9864V13.6191C10.9029 13.3872 11.0891 13.2059 11.3211 13.2059H13.1422C13.3692 13.2059 13.5587 13.3888 13.5587 13.6191V29.9864C13.5587 32.8366 12.0071 34.4699 9.30556 34.4699C8.47585 34.4699 7.82089 34.4699 5.99649 33.5699L2.22682 31.4025C1.29584 30.8652 0.720917 29.859 0.720917 28.7827V12.2047C0.720917 11.1283 1.29747 10.1222 2.22682 9.58647L16.5917 1.28601C17.5015 0.771524 18.7085 0.771524 19.6101 1.28601L33.9734 9.58647C34.9043 10.1238 35.4825 11.1283 35.4825 12.2047V28.7827C35.4825 29.859 34.9043 30.8619 33.9734 31.4025L19.6101 39.6964C19.1528 39.9627 18.6317 40.0999 18.0993 40.0999ZM29.6974 23.7554C29.6974 20.6521 27.6002 19.8257 23.1854 19.2426C18.7248 18.6529 18.2708 18.3475 18.2708 17.3038C18.2708 16.4414 18.6546 15.29 21.9588 15.29C24.9102 15.29 25.9979 15.9253 26.4455 17.9147C26.4847 18.1025 26.6562 18.2397 26.8489 18.2397H28.7125C28.8285 18.2397 28.9379 18.1891 29.0163 18.1074C29.0947 18.0192 29.1371 17.9065 29.1257 17.7873C28.8366 14.3606 26.5598 12.7632 21.9588 12.7632C17.8624 12.7632 15.419 14.4913 15.419 17.3904C15.419 20.5345 17.8494 21.4034 21.7807 21.7922C26.4847 22.2527 26.8489 22.9404 26.8489 23.8648C26.8489 25.4704 25.5602 26.1547 22.5337 26.1547C18.733 26.1547 17.8967 25.2009 17.6158 23.3095C17.5832 23.107 17.41 22.9583 17.2026 22.9583H15.3455C15.1152 22.9583 14.9307 23.1413 14.9307 23.3716C14.9307 25.7921 16.2471 28.6765 22.5337 28.6765C27.0874 28.6782 29.6974 26.8864 29.6974 23.7554Z" fill="#5499EB"/>
</svg>
