<svg width="40" height="41" viewBox="0 0 40 41" fill="none" xmlns="http://www.w3.org/2000/svg">
<path d="M23.7541 1.19439L25.224 1.52105L26.4163 1.94571L27.38 2.4357L28.115 2.95835L28.6703 3.51368L29.0786 4.069L29.34 4.60799L29.5033 5.09798L29.5686 5.52264L29.6013 5.8493L29.5849 6.06163V14.7835L29.5033 15.8125L29.291 16.7108L28.948 17.4621L28.5233 18.0828L28.0333 18.5891L27.4943 18.9974L26.9227 19.3077L26.351 19.5364L25.812 19.6997L25.322 19.8141L24.8974 19.8794L24.5544 19.9121H14.8035L13.6766 19.9937L12.7129 20.2224L11.8963 20.5817L11.2266 21.0227L10.6876 21.5454L10.2466 22.117L9.91997 22.705L9.67497 23.3093L9.51164 23.881L9.39731 24.4036L9.33198 24.8446L9.29931 25.1876V30.1855H5.65704L5.31405 30.1365L4.85672 30.0222L4.33407 29.8262L3.76241 29.5322L3.17442 29.1076L2.58643 28.5196L2.01477 27.7683L1.49212 26.8046L1.03479 25.6123L0.691798 24.175L0.463135 22.46L0.38147 20.451L0.479468 18.4584L0.740797 16.7598L1.13279 15.3388L1.65545 14.1792L2.24344 13.2482L2.89676 12.5295L3.58275 11.9905L4.26873 11.5985L4.92206 11.3372L5.51005 11.1739L6.0327 11.0922L6.4247 11.0759H6.68602L6.78402 11.0922H20.1118V9.73657H10.5733L10.557 5.24498L10.5243 4.64066L10.606 4.08533L10.7856 3.57901L11.0633 3.12168L11.4716 2.69703L11.9779 2.32137L12.5986 1.9947L13.3172 1.70071L14.1502 1.45571L15.0975 1.25972L16.1429 1.09639L17.3025 0.998389L18.5601 0.933057L19.9321 0.900391L22.0064 0.982056L23.7541 1.19439ZM13.4642 4.42833L13.0886 4.96732L12.9579 5.63697L13.0886 6.30663L13.4642 6.86195L14.0032 7.22128L14.6729 7.36828L15.3425 7.22128L15.8815 6.86195L16.2572 6.30663L16.3879 5.63697L16.2572 4.96732L15.8815 4.42833L15.3425 4.069L14.6729 3.922L14.0032 4.069L13.4642 4.42833ZM34.8442 10.8799L35.3015 10.9779L35.8242 11.1739L36.3958 11.4679L36.9838 11.9089L37.5718 12.4805L38.1435 13.2482L38.6661 14.2118L39.1234 15.4041L39.4664 16.8414L39.6951 18.5401L39.7768 20.549L39.6788 22.558L39.4174 24.2566L39.0255 25.6613L38.5028 26.8209L37.9148 27.7519L37.2615 28.4869L36.5755 29.0259L35.8895 29.4179L35.2362 29.6792L34.6482 29.8262L34.1255 29.9079L33.7335 29.9405L33.4722 29.9242H20.0465V31.2635H29.5849L29.6013 35.7714L29.634 36.3594L29.5523 36.9148L29.3726 37.4211L29.095 37.8947L28.6866 38.3031L28.1803 38.6951L27.5597 39.0217L26.841 39.2994L26.008 39.5444L25.0607 39.7567L24.0154 39.9037L22.8557 40.018L21.5981 40.0834L20.2261 40.0997L18.1518 40.0344L16.4042 39.8057L14.9342 39.479L13.7419 39.0707L12.7782 38.5807L12.0433 38.0417L11.4879 37.4864L11.0796 36.9311L10.8183 36.3921L10.655 35.9021L10.5896 35.4938L10.557 35.1671L10.5733 34.9548V26.2329L10.655 25.1876L10.8673 24.3056L11.2103 23.5543L11.6349 22.9337L12.1249 22.411L12.6639 22.019L13.2356 21.6924L13.8072 21.4637L14.3462 21.3004L14.8362 21.2024L15.2609 21.137L15.6039 21.1044L15.8162 21.088H25.3547L26.4817 21.0064L27.4453 20.7777L28.262 20.4347L28.9316 19.9774L29.4706 19.4547L29.9116 18.8831L30.2383 18.2951L30.4833 17.7071L30.6466 17.1354L30.7609 16.6128L30.8263 16.1555L30.8589 15.8125V10.8145H34.2725L34.5012 10.8309L34.8442 10.8799ZM24.2767 34.1545L23.9011 34.6935L23.7704 35.3631L23.9011 36.0328L24.2767 36.5718L24.8157 36.9474L25.4854 37.0781L26.155 36.9474L26.694 36.5718L27.0697 36.0328L27.2003 35.3631L27.0697 34.6935L26.694 34.1545L26.155 33.7788L25.4854 33.6481L24.8157 33.7788L24.2767 34.1545Z" fill="#5499EB"/>
</svg>
