<svg width="40" height="35" viewBox="0 0 40 35" fill="none" xmlns="http://www.w3.org/2000/svg">
<path d="M23.8338 17.5041C23.8338 18.4724 23.4492 19.4011 22.7647 20.0859C22.0801 20.7708 21.1517 21.1557 20.1833 21.1562C19.2148 21.1562 18.2858 20.7714 17.6009 20.0865C16.916 19.4016 16.5313 18.4727 16.5313 17.5041C16.5313 16.5358 16.9158 15.6071 17.6004 14.9223C18.2849 14.2374 19.2134 13.8525 20.1817 13.852C21.1503 13.852 22.0792 14.2368 22.7641 14.9217C23.449 15.6066 23.8338 16.5355 23.8338 17.5041ZM28.1588 0.0440674C25.9603 0.0440674 23.0841 1.61204 20.1752 4.32659C17.2679 1.62674 14.39 0.0767334 12.1932 0.0767334C11.5236 0.0767334 10.9143 0.228631 10.3868 0.530792C8.14099 1.826 7.63793 5.8619 8.79758 10.9268C3.8258 12.4621 0.591858 14.9169 0.591858 17.5041C0.591858 20.101 3.84213 22.5624 8.82861 24.0863C7.67877 29.1708 8.19162 33.2132 10.4423 34.5068C10.965 34.8122 11.5693 34.9559 12.2422 34.9559C14.439 34.9559 17.3169 33.388 20.2258 30.6702C23.1331 33.3716 26.011 34.9216 28.2078 34.9216C28.8774 34.9216 29.4866 34.7747 30.0142 34.4725C32.2584 33.1789 32.7631 29.143 31.6034 24.0765C36.5572 22.5543 39.7912 20.0945 39.7912 17.5041C39.7912 14.9071 36.5409 12.4457 31.5544 10.9186C32.7043 5.83903 32.1914 1.79334 29.9407 0.498126C29.4213 0.197598 28.8186 0.0457007 28.1588 0.0440674ZM28.1506 1.82437V1.83417C28.5181 1.83417 28.8137 1.90603 29.062 2.0416C30.1498 2.66552 30.6218 5.03871 30.2543 8.09136C30.1661 8.84268 30.0224 9.63483 29.846 10.4433C28.278 10.0579 26.5696 9.76223 24.7713 9.57113C23.6933 8.09299 22.5745 6.75041 21.4475 5.57444C24.0477 3.15715 26.4895 1.8309 28.1522 1.826L28.1506 1.82437ZM12.1932 1.85704C13.8461 1.85704 16.2993 3.17674 18.9061 5.58097C17.7857 6.75695 16.6685 8.09136 15.6068 9.5695C13.7988 9.76059 12.0887 10.0562 10.5223 10.4482C10.3394 9.6479 10.2039 8.87371 10.1075 8.12892C9.73183 5.07791 10.1957 2.70635 11.2737 2.07426C11.584 1.92727 11.927 1.8652 12.1932 1.85704ZM20.167 6.83861C20.9102 7.603 21.6533 8.45885 22.3883 9.3931C21.6697 9.36044 20.9347 9.33757 20.1915 9.33757C19.4402 9.33757 18.697 9.3539 17.9702 9.3931C18.6889 8.45885 19.432 7.60463 20.167 6.83861ZM20.1915 11.1277C21.4002 11.1277 22.6039 11.1832 23.788 11.2796C24.4512 12.2302 25.098 13.2444 25.7202 14.3175C26.3278 15.3628 26.8799 16.4245 27.383 17.4959C26.8799 18.5657 26.3278 19.6356 25.7284 20.6809C25.1078 21.7589 24.4659 22.7846 23.8011 23.7351C22.6121 23.838 21.4067 23.8952 20.1915 23.8952C18.9829 23.8952 17.7791 23.838 16.595 23.7433C15.9319 22.7927 15.2851 21.7768 14.6628 20.7054C14.0552 19.6601 13.5031 18.5984 13.0001 17.527C13.495 16.4539 14.0552 15.3824 14.6546 14.3355C15.2753 13.2575 15.9172 12.2351 16.5819 11.2845C17.771 11.1799 18.9763 11.1244 20.1915 11.1244V11.1277ZM14.2544 11.5425C13.8625 12.1583 13.4705 12.7887 13.1046 13.4372C12.7371 14.0742 12.3941 14.7144 12.0675 15.3547C11.6346 14.2832 11.2671 13.215 10.9633 12.1746C12.0087 11.9296 13.1111 11.7108 14.2544 11.5425ZM26.1122 11.5425C27.2474 11.7108 28.3417 11.9182 29.3887 12.1746C29.0947 13.2069 28.7272 14.2685 28.3107 15.3318C27.984 14.6948 27.641 14.0529 27.2654 13.4143C26.8979 12.774 26.5059 12.1501 26.1139 11.5425H26.1122ZM31.1151 12.645C31.9056 12.89 32.6569 13.1628 33.3608 13.4584C36.1897 14.667 38.019 16.2481 38.019 17.5025C38.0109 18.7568 36.1816 20.3444 33.3527 21.5449C32.6667 21.8389 31.9154 22.1035 31.1395 22.3501C30.6822 20.7854 30.0844 19.1554 29.3429 17.4829C30.0779 15.8218 30.6659 14.1999 31.1151 12.6417V12.645ZM9.23694 12.6515C9.691 14.2195 10.2904 15.8479 11.0336 17.5188C10.2986 19.1799 9.70733 20.8017 9.2598 22.3599C8.46929 22.1149 7.71797 21.8405 7.02218 21.5433C4.19329 20.3395 2.36399 18.7568 2.36399 17.5025C2.36399 16.2481 4.19329 14.6572 7.02218 13.4584C7.70817 13.1644 8.45949 12.8998 9.23694 12.6515ZM28.3107 19.6421C28.7435 20.7152 29.111 21.785 29.4148 22.8238C28.3695 23.0802 27.2654 23.2974 26.122 23.4608C26.514 22.8483 26.906 22.2162 27.2735 21.5694C27.641 20.9324 27.9824 20.2823 28.3107 19.6421ZM12.0675 19.6748C12.3941 20.315 12.7371 20.9536 13.1128 21.5939C13.4884 22.2309 13.8723 22.8548 14.2642 23.4608C13.1291 23.2942 12.0348 23.0851 10.9878 22.8303C11.2818 21.8013 11.651 20.7364 12.0658 19.6731L12.0675 19.6748ZM29.8607 24.5534C30.0436 25.3587 30.1873 26.1345 30.2755 26.8776C30.6512 29.9286 30.1873 32.3002 29.1094 32.9339C28.8693 33.0809 28.5573 33.143 28.1898 33.143C26.5369 33.143 24.0837 31.8249 21.4769 29.419C22.5974 28.2431 23.7146 26.9103 24.7762 25.4338C26.5843 25.2411 28.2943 24.9454 29.8607 24.5534ZM10.5387 24.5698C12.1067 24.952 13.8151 25.2476 15.6134 25.4387C16.6913 26.9168 17.8102 28.2594 18.9371 29.4337C16.332 31.8559 13.887 33.1822 12.2243 33.1822C11.8649 33.174 11.5611 33.1005 11.321 32.9666C10.2333 32.3459 9.76123 29.9711 10.1287 26.9185C10.2169 26.1671 10.3623 25.3766 10.5387 24.5698ZM17.9865 25.6151C18.7052 25.6477 19.4402 25.6706 20.1833 25.6706C20.9347 25.6706 21.6778 25.6543 22.4046 25.6151C21.686 26.5493 20.9428 27.4035 20.2078 28.1712C19.4647 27.4035 18.7215 26.5493 17.9865 25.6151Z" fill="#5499EB"/>
</svg>
