<svg width="40" height="41" viewBox="0 0 40 41" fill="none" xmlns="http://www.w3.org/2000/svg">
<path d="M20.3509 0.900391C31.1748 0.900391 39.9505 9.67614 39.9505 20.5C39.9505 31.324 31.1748 40.0997 20.3509 40.0997C9.52697 40.0997 0.751221 31.324 0.751221 20.5C0.751221 9.67614 9.52697 0.900391 20.3509 0.900391ZM16.4554 27.03C16.7413 28.0835 16.7102 29.0684 16.4162 29.9569L16.3101 30.2509C16.2709 30.3505 16.2251 30.4469 16.1827 30.5383C15.954 31.012 15.6502 31.453 15.2762 31.8613C14.1362 33.101 12.5453 33.5714 11.8626 33.1761C11.1276 32.7482 11.4935 30.9957 12.8164 29.5992C14.239 28.0998 16.279 27.1345 16.279 27.1345V27.1296L16.4554 27.03ZM32.6431 9.29068C31.7579 5.80684 25.9841 4.66189 20.5207 6.60389C17.2721 7.75864 13.7523 9.57324 11.2223 11.9399C8.21215 14.7508 7.7336 17.2008 7.93123 18.2249C8.62865 21.8361 13.5776 24.1978 15.6127 25.9504V25.9602C15.0132 26.2542 10.6213 28.4575 9.5923 30.7376C8.48982 33.1386 9.76379 34.8552 10.5968 35.074C13.1692 35.7861 15.8152 34.486 17.2362 32.3807C18.6081 30.3211 18.4873 27.6751 17.896 26.3767C18.7061 26.1562 19.66 26.0582 20.885 26.2068C24.3165 26.5988 25.0025 28.7548 24.8539 29.6367C24.7069 30.5171 23.9997 31.0316 23.753 31.1786C23.5081 31.3272 23.4346 31.3746 23.4574 31.4742C23.4819 31.6212 23.6061 31.6212 23.8004 31.5967C24.0699 31.5477 25.5905 30.8617 25.664 29.1941C25.7375 27.0872 23.7269 24.7368 20.1516 24.7842C18.6816 24.8103 17.749 24.9328 17.0892 25.2023C17.0402 25.1288 16.9895 25.0798 16.9177 25.0308C14.7127 22.6544 10.6213 20.9884 10.7928 17.828C10.8418 16.6765 11.2583 13.6402 18.6326 9.96523C24.684 6.95015 29.5121 7.78477 30.3451 9.62224C31.5423 12.2421 27.771 17.1191 21.4746 17.828C19.0736 18.0975 17.8242 17.1681 17.504 16.8235C17.1627 16.456 17.1137 16.4315 16.9912 16.5066C16.7952 16.6046 16.9177 16.9231 16.9912 17.1191C17.1872 17.6091 17.9466 18.4666 19.2713 18.9076C20.4211 19.2751 23.2402 19.4939 26.6211 18.1726C30.4169 16.7042 33.3814 12.6112 32.5239 9.18124L32.6431 9.29068Z" fill="#5499EB"/>
</svg>
