<svg width="34" height="41" viewBox="0 0 34 41" fill="none" xmlns="http://www.w3.org/2000/svg">
<path d="M14.1644 35.4045C12.7277 35.7778 11.211 35.7012 9.81926 35.1851C8.42748 34.669 7.22761 33.7382 6.38167 32.5184C5.86213 31.7916 5.49295 30.9683 5.29578 30.0969C5.09861 29.2255 5.07742 28.3235 5.23346 27.4437C5.28665 27.1548 5.35978 26.87 5.45232 26.5912L5.62382 26.0669L6.09257 26.4099C7.17256 27.2032 8.38003 27.8064 9.66298 28.1934L10.0027 28.2963L9.97004 28.6361C9.92925 29.1173 10.06 29.5975 10.3392 29.9917C10.5937 30.3593 10.955 30.6399 11.3741 30.7956C11.7933 30.9513 12.2501 30.9746 12.683 30.8622C12.8811 30.8096 13.07 30.727 13.2432 30.6173L22.3734 24.7994C22.5963 24.6586 22.7876 24.4729 22.9349 24.2541C23.0823 24.0353 23.1825 23.7883 23.2292 23.5287C23.2762 23.2635 23.27 22.9916 23.2108 22.7288C23.1516 22.4661 23.0407 22.2177 22.8846 21.9983C22.6299 21.6309 22.2686 21.3504 21.8495 21.1947C21.4304 21.0391 20.9736 21.0157 20.5408 21.1278C20.3426 21.1804 20.1537 21.263 19.9806 21.3728L16.4967 23.594C15.9239 23.9586 15.2988 24.2335 14.6429 24.4091C13.2064 24.7825 11.6899 24.7062 10.2981 24.1904C8.90635 23.6746 7.70638 22.7441 6.86023 21.5246C6.34067 20.7975 5.97162 19.9739 5.77472 19.1022C5.57783 18.2305 5.55706 17.3282 5.71365 16.4483C5.86845 15.5862 6.20146 14.7658 6.69138 14.0396C7.1813 13.3134 7.81735 12.6975 8.55886 12.2311L17.6874 6.41168C18.2601 6.04698 18.8853 5.77212 19.5412 5.59666C20.9779 5.22337 22.4945 5.29995 23.8863 5.81607C25.2781 6.33218 26.478 7.26296 27.3239 8.48271C27.8434 9.20957 28.2126 10.0328 28.4098 10.9043C28.607 11.7757 28.6281 12.6777 28.4721 13.5574C28.4187 13.8462 28.3456 14.1311 28.2532 14.41L28.0818 14.9343L27.6146 14.5913C26.5344 13.797 25.3263 13.1933 24.0426 12.8061L23.7029 12.7032L23.7355 12.3651C23.7764 11.8833 23.6457 11.4025 23.3664 11.0078C23.1116 10.6405 22.7503 10.3602 22.3311 10.2048C21.912 10.0494 21.4552 10.0264 21.0226 10.1389C20.8245 10.1915 20.6355 10.2741 20.4624 10.3839L11.3322 16.2017C11.1091 16.3424 10.9177 16.5281 10.7704 16.7469C10.623 16.9657 10.5229 17.2128 10.4764 17.4724C10.4291 17.7376 10.4353 18.0096 10.4945 18.2723C10.5537 18.5351 10.6647 18.7835 10.821 19.0028C11.0757 19.3703 11.437 19.6507 11.8561 19.8064C12.2752 19.9621 12.732 19.9854 13.1648 19.8734C13.3635 19.8203 13.553 19.7371 13.7266 19.6267L17.2088 17.4055C17.7816 17.0412 18.4068 16.7669 19.0626 16.5921C20.4992 16.2186 22.0157 16.2949 23.4075 16.8108C24.7992 17.3266 25.9992 18.257 26.8453 19.4765C27.3649 20.2036 27.7339 21.0272 27.9308 21.8989C28.1277 22.7707 28.1485 23.6729 27.9919 24.5528C27.8371 25.4152 27.5041 26.2358 27.0142 26.9623C26.5243 27.6887 25.8883 28.3049 25.1467 28.7716L16.0182 34.5894C15.4455 34.9542 14.8203 35.229 14.1644 35.4045ZM31.0821 6.08666C27.4431 0.876414 20.2533 -0.667059 15.0561 2.64528L5.92598 8.46311C4.69299 9.2391 3.63547 10.2638 2.82101 11.4717C2.00655 12.6796 1.45306 14.0442 1.19593 15.4782C0.760288 17.8941 1.14309 20.3863 2.28371 22.5602C1.50191 23.7452 0.968506 25.0765 0.715735 26.4736C0.455963 27.9364 0.490894 29.4364 0.818481 30.8856C1.14607 32.3348 1.75971 33.704 2.62344 34.9128C6.26407 40.1231 13.4522 41.6666 18.6494 38.3558L27.7796 32.538C29.0127 31.7622 30.0703 30.7375 30.8848 29.5296C31.6993 28.3217 32.2527 26.957 32.5096 25.523C32.9454 23.1072 32.5632 20.6151 31.4235 18.441C32.2042 17.2557 32.7365 15.9244 32.9882 14.5276C33.2486 13.0646 33.2141 11.5643 32.8868 10.1148C32.5595 8.6653 31.9459 7.29579 31.0821 6.08666Z" fill="#5499EB"/>
</svg>
