<svg width="40" height="25" viewBox="0 0 40 25" fill="none" xmlns="http://www.w3.org/2000/svg">
<path d="M19.7206 0.740234C14.494 0.740234 11.2274 3.35352 9.92074 8.5801C11.8807 5.96681 14.1673 4.98683 16.7806 5.64015C18.2718 6.01254 19.3367 7.09379 20.5176 8.29263C22.44 10.2428 24.6629 12.5 29.5204 12.5C34.747 12.5 38.0136 9.88674 39.3202 4.66016C37.3603 7.27345 35.0736 8.25343 32.4603 7.60011C30.9691 7.22772 29.9042 6.14647 28.7233 4.94763C26.8026 2.99746 24.5796 0.740234 19.7206 0.740234ZM9.92074 12.5C4.69416 12.5 1.42755 15.1133 0.120911 20.3399C2.08088 17.7266 4.3675 16.7466 6.98079 17.3999C8.472 17.7723 9.53691 18.8536 10.7178 20.0524C12.6402 22.0026 14.8631 24.2598 19.7206 24.2598C24.9471 24.2598 28.2137 21.6465 29.5204 16.42C27.5604 19.0332 25.2738 20.0132 22.6605 19.3599C21.1693 18.9875 20.1044 17.9063 18.9235 16.7074C17.0027 14.7573 14.7798 12.5 9.92074 12.5Z" fill="#5499EB"/>
</svg>
