<svg width="41" height="41" viewBox="0 0 41 41" fill="none" xmlns="http://www.w3.org/2000/svg">
<path d="M2.75098 0.900391C1.73343 0.900391 0.913513 1.72031 0.913513 2.73786V38.2622C0.913513 39.2798 1.73343 40.0997 2.75098 40.0997H38.2754C39.2929 40.0997 40.1128 39.2798 40.1128 38.2622V2.73786C40.1128 1.72031 39.2929 0.900391 38.2754 0.900391H2.75098ZM31.11 16.8251C32.1096 16.8251 32.9949 16.8855 33.7674 17.0064C34.4961 17.1156 35.2111 17.3017 35.9005 17.5617V21.5764C35.5696 21.3475 35.218 21.1501 34.8503 20.9868C34.4711 20.8161 34.0797 20.6742 33.6792 20.5621C32.9207 20.3507 32.1375 20.2409 31.3501 20.2354C30.8602 20.2354 30.4143 20.2812 30.0125 20.3759C29.6544 20.4525 29.3108 20.5859 28.9949 20.7712C28.7173 20.941 28.5049 21.1452 28.353 21.382C28.2003 21.6207 28.1208 21.899 28.1244 22.1823C28.1244 22.5025 28.2109 22.7916 28.3792 23.0464C28.549 23.3012 28.7908 23.5429 29.1027 23.7716C29.4147 24.0002 29.7936 24.2223 30.2395 24.4412C30.6854 24.6617 31.1901 24.8887 31.7519 25.1207C32.5196 25.4424 33.2088 25.7854 33.8197 26.1464C34.4306 26.509 34.9548 26.9189 35.3926 27.3763C35.8303 27.8319 36.1635 28.353 36.3954 28.9393C36.6273 29.5257 36.7449 30.2068 36.7449 30.9859C36.7449 32.0589 36.5408 32.9622 36.1357 33.6906C35.74 34.4091 35.172 35.018 34.4828 35.4627C33.74 35.9338 32.9166 36.2638 32.0541 36.4362C31.1296 36.6322 30.1546 36.7302 29.1305 36.7302C28.1226 36.7346 27.1164 36.6449 26.1252 36.4623C25.2676 36.314 24.4359 36.0428 23.6556 35.6571V31.3615C25.1318 32.6177 27.0044 33.3119 28.9426 33.3215C29.4865 33.3215 29.9618 33.2725 30.3669 33.1745C30.7736 33.0765 31.1117 32.9393 31.3844 32.7662C31.6556 32.5898 31.8581 32.384 31.9937 32.1455C32.1435 31.8679 32.2117 31.5535 32.1903 31.2387C32.1689 30.9239 32.0588 30.6217 31.8728 30.3668C31.6301 30.0457 31.3333 29.7694 30.9957 29.5502C30.577 29.2727 30.1362 29.0301 29.6776 28.825C29.1341 28.5768 28.5858 28.3394 28.0329 28.1129C26.5335 27.4873 25.4163 26.7213 24.6797 25.8181C23.9447 24.9149 23.5756 23.8222 23.5756 22.5433C23.5756 21.5405 23.7765 20.6797 24.1783 19.9594C24.5801 19.2391 25.1256 18.6462 25.8181 18.1808C26.5506 17.6975 27.3638 17.3496 28.2191 17.1534C29.1664 16.9301 30.1368 16.8199 31.11 16.8251ZM6.42592 17.1322H22.0452V20.6699H16.4397V36.4248H12.002V20.6699H6.42592V17.1322Z" fill="#5499EB"/>
</svg>
