<svg width="49" height="49" viewBox="0 0 49 49" fill="none" xmlns="http://www.w3.org/2000/svg">
<g clip-path="url(#clip0_10_223)">
<mask id="mask0_10_223" style="mask-type:luminance" maskUnits="userSpaceOnUse" x="0" y="0" width="49" height="49">
<path d="M48.9532 0.5H0.953186V48.5H48.9532V0.5Z" fill="white"/>
</mask>
<g mask="url(#mask0_10_223)">
<path fill-rule="evenodd" clip-rule="evenodd" d="M24.9731 0.5C11.6907 0.5 0.953186 11.3167 0.953186 24.6983C0.953186 35.395 7.83307 44.4495 17.3773 47.6542C18.5706 47.8951 19.0077 47.1335 19.0077 46.4929C19.0077 45.9319 18.9683 44.009 18.9683 42.0055C12.2866 43.448 10.8952 39.1209 10.8952 39.1209C9.82137 36.3164 8.23034 35.5956 8.23034 35.5956C6.04341 34.1132 8.38964 34.1132 8.38964 34.1132C10.8155 34.2735 12.0885 36.5971 12.0885 36.5971C14.2356 40.2827 17.6954 39.2413 19.0873 38.6002C19.286 37.0377 19.9227 35.956 20.5987 35.3552C15.2695 34.7942 9.66256 32.711 9.66256 23.4161C9.66256 20.7719 10.6164 18.6086 12.1278 16.9261C11.8893 16.3253 11.054 13.8409 12.3667 10.5157C12.3667 10.5157 14.3949 9.8746 18.9678 12.9996C20.9257 12.4699 22.9448 12.2005 24.9731 12.1982C27.0012 12.1982 29.0686 12.479 30.9778 12.9996C35.5513 9.8746 37.5794 10.5157 37.5794 10.5157C38.8921 13.8409 38.0563 16.3253 37.8178 16.9261C39.369 18.6086 40.2835 20.7719 40.2835 23.4161C40.2835 32.711 34.6766 34.7539 29.3076 35.3552C30.1828 36.1163 30.938 37.5583 30.938 39.8421C30.938 43.0871 30.8986 45.6915 30.8986 46.4924C30.8986 47.1335 31.3362 47.8951 32.529 47.6547C42.0732 44.4491 48.9531 35.395 48.9531 24.6983C48.9924 11.3167 38.2156 0.5 24.9731 0.5Z" fill="#5499EB"/>
</g>
</g>
<defs>
<clipPath id="clip0_10_223">
<rect width="48" height="48" fill="white" transform="translate(0.953186 0.5)"/>
</clipPath>
</defs>
</svg>
