<svg width="49" height="49" viewBox="0 0 49 49" fill="none" xmlns="http://www.w3.org/2000/svg">
<g clip-path="url(#clip0_10_235)">
<mask id="mask0_10_235" style="mask-type:luminance" maskUnits="userSpaceOnUse" x="0" y="0" width="49" height="49">
<path d="M48.9532 0.5H0.953186V48.5H48.9532V0.5Z" fill="white"/>
</mask>
<g mask="url(#mask0_10_235)">
<path d="M24.9532 4.82187C31.3657 4.82187 32.1251 4.85 34.647 4.9625C36.9907 5.06562 38.2563 5.45938 39.1001 5.7875C40.2157 6.21875 41.022 6.74375 41.8563 7.57812C42.7001 8.42188 43.2157 9.21875 43.647 10.3344C43.9751 11.1781 44.3688 12.4531 44.472 14.7875C44.5845 17.3187 44.6126 18.0781 44.6126 24.4813C44.6126 30.8938 44.5845 31.6531 44.472 34.175C44.3688 36.5188 43.9751 37.7844 43.647 38.6281C43.2157 39.7438 42.6907 40.55 41.8563 41.3844C41.0126 42.2281 40.2157 42.7438 39.1001 43.175C38.2563 43.5031 36.9813 43.8969 34.647 44C32.1157 44.1125 31.3563 44.1406 24.9532 44.1406C18.5407 44.1406 17.7813 44.1125 15.2595 44C12.9157 43.8969 11.6501 43.5031 10.8063 43.175C9.69069 42.7438 8.88444 42.2188 8.05007 41.3844C7.20632 40.5406 6.69069 39.7438 6.25944 38.6281C5.93132 37.7844 5.53757 36.5094 5.43444 34.175C5.32194 31.6438 5.29382 30.8844 5.29382 24.4813C5.29382 18.0688 5.32194 17.3094 5.43444 14.7875C5.53757 12.4437 5.93132 11.1781 6.25944 10.3344C6.69069 9.21875 7.21569 8.4125 8.05007 7.57812C8.89382 6.73438 9.69069 6.21875 10.8063 5.7875C11.6501 5.45938 12.9251 5.06562 15.2595 4.9625C17.7813 4.85 18.5407 4.82187 24.9532 4.82187ZM24.9532 0.5C18.4376 0.5 17.622 0.528125 15.0626 0.640625C12.5126 0.753125 10.7594 1.16563 9.24069 1.75625C7.65631 2.375 6.31569 3.19062 4.98444 4.53125C3.64382 5.8625 2.82819 7.20313 2.20944 8.77813C1.61881 10.3062 1.20631 12.05 1.09381 14.6C0.981311 17.1687 0.953186 17.9844 0.953186 24.5C0.953186 31.0156 0.981311 31.8312 1.09381 34.3906C1.20631 36.9406 1.61881 38.6938 2.20944 40.2125C2.82819 41.7969 3.64382 43.1375 4.98444 44.4688C6.31569 45.8 7.65632 46.625 9.23132 47.2344C10.7594 47.825 12.5032 48.2375 15.0532 48.35C17.6126 48.4625 18.4282 48.4906 24.9438 48.4906C31.4595 48.4906 32.2751 48.4625 34.8345 48.35C37.3845 48.2375 39.1376 47.825 40.6563 47.2344C42.2313 46.625 43.572 45.8 44.9032 44.4688C46.2344 43.1375 47.0595 41.7969 47.6688 40.2219C48.2595 38.6938 48.672 36.95 48.7845 34.4C48.897 31.8406 48.9251 31.025 48.9251 24.5094C48.9251 17.9938 48.897 17.1781 48.7845 14.6188C48.672 12.0688 48.2595 10.3156 47.6688 8.79688C47.0782 7.20312 46.2626 5.8625 44.922 4.53125C43.5907 3.2 42.2501 2.375 40.6751 1.76562C39.147 1.175 37.4032 0.7625 34.8532 0.65C32.2845 0.528125 31.4688 0.5 24.9532 0.5Z" fill="#5499EB"/>
<path d="M24.9532 12.1719C18.147 12.1719 12.6251 17.6938 12.6251 24.5C12.6251 31.3062 18.147 36.8281 24.9532 36.8281C31.7594 36.8281 37.2813 31.3062 37.2813 24.5C37.2813 17.6938 31.7594 12.1719 24.9532 12.1719ZM24.9532 32.4969C20.5376 32.4969 16.9563 28.9156 16.9563 24.5C16.9563 20.0844 20.5376 16.5031 24.9532 16.5031C29.3688 16.5031 32.9501 20.0844 32.9501 24.5C32.9501 28.9156 29.3688 32.4969 24.9532 32.4969Z" fill="#5499EB"/>
<path d="M40.6469 11.6843C40.6469 13.278 39.3532 14.5624 37.7688 14.5624C36.1751 14.5624 34.8907 13.2687 34.8907 11.6843C34.8907 10.0905 36.1845 8.80615 37.7688 8.80615C39.3532 8.80615 40.6469 10.0999 40.6469 11.6843Z" fill="#5499EB"/>
</g>
</g>
<defs>
<clipPath id="clip0_10_235">
<rect width="48" height="48" fill="white" transform="translate(0.953186 0.5)"/>
</clipPath>
</defs>
</svg>
