<svg width="49" height="49" viewBox="0 0 49 49" fill="none" xmlns="http://www.w3.org/2000/svg">
<g clip-path="url(#clip0_10_203)">
<mask id="mask0_10_203" style="mask-type:luminance" maskUnits="userSpaceOnUse" x="0" y="0" width="49" height="49">
<path d="M48.9532 0.5H0.953186V48.5H48.9532V0.5Z" fill="white"/>
</mask>
<g mask="url(#mask0_10_203)">
<path d="M45.4001 0.5H4.49694C2.53756 0.5 0.953186 2.04688 0.953186 3.95938V45.0312C0.953186 46.9437 2.53756 48.5 4.49694 48.5H45.4001C47.3594 48.5 48.9532 46.9438 48.9532 45.0406V3.95938C48.9532 2.04688 47.3594 0.5 45.4001 0.5ZM15.1938 41.4031H8.06882V18.4906H15.1938V41.4031ZM11.6313 15.3688C9.34381 15.3688 7.49694 13.5219 7.49694 11.2437C7.49694 8.96562 9.34381 7.11875 11.6313 7.11875C13.9095 7.11875 15.7563 8.96562 15.7563 11.2437C15.7563 13.5125 13.9095 15.3688 11.6313 15.3688ZM41.8563 41.4031H34.7407V30.2656C34.7407 27.6125 34.6938 24.1906 31.0376 24.1906C27.3344 24.1906 26.7719 27.0875 26.7719 30.0781V41.4031H19.6657V18.4906H26.4907V21.6219H26.5844C27.5313 19.8219 29.8563 17.9188 33.3157 17.9188C40.5251 17.9188 41.8563 22.6625 41.8563 28.8313V41.4031Z" fill="#5499EB"/>
</g>
</g>
<defs>
<clipPath id="clip0_10_203">
<rect width="48" height="48" fill="white" transform="translate(0.953186 0.5)"/>
</clipPath>
</defs>
</svg>
