<svg width="63" height="63" viewBox="0 0 63 63" fill="none" xmlns="http://www.w3.org/2000/svg">
<path d="M20.2644 22.2331C20.6335 21.864 21.1342 21.6567 21.6563 21.6567C22.1783 21.6567 22.679 21.864 23.0482 22.2331L30.9232 30.1081C31.2922 30.4773 31.4996 30.978 31.4996 31.5C31.4996 32.022 31.2922 32.5227 30.9232 32.8919L23.0482 40.7669C22.6769 41.1255 22.1795 41.324 21.6633 41.3195C21.1471 41.315 20.6534 41.108 20.2883 40.7429C19.9233 40.3779 19.7163 39.8841 19.7118 39.3679C19.7073 38.8517 19.9057 38.3544 20.2644 37.9831L26.7474 31.5L20.2644 25.0169C19.8953 24.6477 19.6879 24.147 19.6879 23.625C19.6879 23.103 19.8953 22.6023 20.2644 22.2331ZM33.4688 37.4063C32.9466 37.4063 32.4459 37.6137 32.0766 37.9829C31.7074 38.3521 31.5 38.8529 31.5 39.375C31.5 39.8972 31.7074 40.3979 32.0766 40.7671C32.4459 41.1363 32.9466 41.3438 33.4688 41.3438H41.3438C41.8659 41.3438 42.3667 41.1363 42.7359 40.7671C43.1051 40.3979 43.3125 39.8972 43.3125 39.375C43.3125 38.8529 43.1051 38.3521 42.7359 37.9829C42.3667 37.6137 41.8659 37.4063 41.3438 37.4063H33.4688Z" fill="#5499EB"/>
<path fill-rule="evenodd" clip-rule="evenodd" d="M7.875 19.6875C7.875 17.5989 8.70468 15.5959 10.1815 14.119C11.6584 12.6422 13.6614 11.8125 15.75 11.8125H47.25C49.3386 11.8125 51.3416 12.6422 52.8185 14.119C54.2953 15.5959 55.125 17.5989 55.125 19.6875V43.3125C55.125 45.4011 54.2953 47.4041 52.8185 48.881C51.3416 50.3578 49.3386 51.1875 47.25 51.1875H15.75C13.6614 51.1875 11.6584 50.3578 10.1815 48.881C8.70468 47.4041 7.875 45.4011 7.875 43.3125V19.6875ZM15.75 15.75C14.7057 15.75 13.7042 16.1648 12.9658 16.9033C12.2273 17.6417 11.8125 18.6432 11.8125 19.6875V43.3125C11.8125 44.3568 12.2273 45.3583 12.9658 46.0967C13.7042 46.8352 14.7057 47.25 15.75 47.25H47.25C48.2943 47.25 49.2958 46.8352 50.0342 46.0967C50.7727 45.3583 51.1875 44.3568 51.1875 43.3125V19.6875C51.1875 18.6432 50.7727 17.6417 50.0342 16.9033C49.2958 16.1648 48.2943 15.75 47.25 15.75H15.75Z" fill="#5499EB"/>
</svg>
