<svg width="26" height="26" viewBox="0 0 26 26" fill="none" xmlns="http://www.w3.org/2000/svg">
<path d="M13.1449 0.486816C6.23134 0.486816 0.631687 6.08647 0.631687 13C0.631687 19.9135 6.23134 25.5132 13.1449 25.5132C20.0584 25.5132 25.6581 19.9135 25.6581 13C25.6581 6.08647 20.0584 0.486816 13.1449 0.486816ZM13.1449 3.61511C14.1772 3.61511 15.147 3.89666 16.0855 4.20949C15.4285 4.83515 14.6777 5.39824 14.8029 5.96134C14.928 6.52443 16.9614 6.36801 16.9614 7.52548C16.9614 8.37012 15.6475 8.62039 16.5547 9.59016C17.6496 10.6851 14.5526 12.6559 14.49 14.0949C14.3962 16.6914 17.1178 17.1294 19.2763 17.1294C20.5902 17.1294 20.9343 17.755 20.8405 18.5058C19.1512 20.9146 16.2732 22.4162 13.1136 22.4162C11.9248 22.4162 10.8299 22.1346 9.7976 21.7279C10.4858 20.3515 8.92167 17.6299 7.45137 16.754C6.73187 16.0344 5.199 16.316 4.32308 15.9719C4.04153 15.1272 3.75998 14.2826 3.7287 13.3441C3.82255 13.1877 3.97896 13.0626 4.22923 13.0626C4.8236 13.0626 5.63696 14.2513 6.07492 14.1262C6.63802 14.0011 3.75998 10.0281 5.10515 9.24605C5.73081 8.87065 6.98213 10.4661 6.57545 8.74552C6.20005 7.15009 7.70164 7.8696 8.64013 7.46292C9.45348 7.1188 10.0479 6.18032 9.0468 5.61722C8.85911 5.52337 8.64013 5.30439 8.35858 5.02285C9.76631 4.17821 11.393 3.6464 13.1449 3.6464V3.61511ZM20.3712 7.02496C20.9343 7.71318 21.3723 8.46397 21.7477 9.27733V9.37118C21.6226 9.59016 21.4036 9.71529 21.0595 10.0594C20.1835 10.9353 20.0584 9.40246 19.683 9.08963C19.2763 8.71424 17.806 9.1522 17.6183 8.68295C17.3994 8.11986 19.1825 7.36907 20.3712 7.02496Z" fill="#5499EB"/>
</svg>
