<svg width="285" height="62" viewBox="0 0 285 62" fill="none" xmlns="http://www.w3.org/2000/svg">
<path d="M274.134 0.84718C273.497 -0.0552942 272.249 -0.270603 271.347 0.366275L256.64 10.7448C255.738 11.3817 255.522 12.6296 256.159 13.532C256.796 14.4345 258.044 14.6498 258.946 14.013L272.019 4.78759L281.244 17.8602C281.881 18.7627 283.129 18.978 284.032 18.3411C284.934 17.7042 285.149 16.4563 284.513 15.5539L274.134 0.84718ZM213.745 52.485C234.211 49.9584 248.264 44.4051 257.798 35.86C267.36 27.2885 272.126 15.9311 274.471 2.3404L270.529 1.6603C268.275 14.7241 263.791 25.1166 255.128 32.8814C246.436 40.6725 233.289 46.0418 213.255 48.5152L213.745 52.485Z" fill="#5499EB"/>
<path d="M10.9081 0.846814C11.545 -0.0556604 12.7929 -0.270969 13.6953 0.365909L28.402 10.7444C29.3045 11.3813 29.5198 12.6292 28.8829 13.5317C28.246 14.4342 26.9981 14.6495 26.0957 14.0126L13.0231 4.78723L3.79772 17.8598C3.16084 18.7623 1.91295 18.9776 1.01048 18.3407C0.108002 17.7039 -0.107307 16.456 0.529571 15.5535L10.9081 0.846814ZM71.2972 52.4847C50.8313 49.958 36.7777 44.4048 27.2444 35.8596C17.6817 27.2881 12.9162 15.9308 10.5713 2.34003L14.5131 1.65993C16.767 14.7237 21.2516 25.1162 29.9142 32.881C38.6062 40.6721 51.7533 46.0415 71.7873 48.5148L71.2972 52.4847Z" fill="#5499EB"/>
<path d="M93.0312 45.8047L92.5156 48.7578H83.9258L84.4414 45.8047H93.0312ZM86.8203 38.9375L83.8555 56H80.1406L83.0938 38.9375H86.8203ZM96.7812 38.9375L93.8164 56H90.1133L93.0664 38.9375H96.7812ZM96.957 49.8594L96.9805 49.6133C97.082 48.707 97.3047 47.8555 97.6484 47.0586C97.9922 46.2617 98.4492 45.5625 99.0195 44.9609C99.5898 44.3594 100.262 43.8906 101.035 43.5547C101.809 43.2188 102.676 43.0625 103.637 43.0859C104.559 43.1016 105.355 43.2852 106.027 43.6367C106.707 43.9805 107.262 44.4492 107.691 45.043C108.121 45.6367 108.426 46.3164 108.605 47.082C108.785 47.8477 108.836 48.6602 108.758 49.5195L108.734 49.7773C108.633 50.6758 108.406 51.5195 108.055 52.3086C107.703 53.0977 107.242 53.7891 106.672 54.3828C106.102 54.9766 105.43 55.4414 104.656 55.7773C103.883 56.1055 103.02 56.2578 102.066 56.2344C101.152 56.2188 100.355 56.0391 99.6758 55.6953C99.0039 55.3516 98.4531 54.8867 98.0234 54.3008C97.5938 53.7148 97.2891 53.043 97.1094 52.2852C96.9297 51.5273 96.8789 50.7188 96.957 49.8594ZM100.555 49.6133L100.531 49.8594C100.508 50.2109 100.496 50.5898 100.496 50.9961C100.504 51.3945 100.559 51.7773 100.66 52.1445C100.77 52.5117 100.949 52.8125 101.199 53.0469C101.457 53.2734 101.816 53.3945 102.277 53.4102C102.777 53.4258 103.199 53.3242 103.543 53.1055C103.887 52.8867 104.168 52.5938 104.387 52.2266C104.613 51.8516 104.785 51.4492 104.902 51.0195C105.027 50.5898 105.109 50.1719 105.148 49.7656L105.172 49.5195C105.203 49.1758 105.215 48.8008 105.207 48.3945C105.207 47.9805 105.152 47.5898 105.043 47.2227C104.941 46.8477 104.762 46.543 104.504 46.3086C104.246 46.0664 103.887 45.9375 103.426 45.9219C102.926 45.9062 102.5 46.0117 102.148 46.2383C101.805 46.4648 101.523 46.7656 101.305 47.1406C101.086 47.5156 100.918 47.9219 100.801 48.3594C100.684 48.7891 100.602 49.207 100.555 49.6133ZM114.137 53.2695L118.238 43.3203H122.082L116.012 56H113.715L114.137 53.2695ZM114.031 43.3203L115.027 53.5977L114.664 56H112.473L110.363 43.3203H114.031ZM127.156 56.2344C126.281 56.2188 125.488 56.0547 124.777 55.7422C124.074 55.4297 123.48 55 122.996 54.4531C122.512 53.8984 122.156 53.2539 121.93 52.5195C121.703 51.7852 121.621 50.9844 121.684 50.1172L121.73 49.6602C121.824 48.7539 122.039 47.9023 122.375 47.1055C122.719 46.3086 123.176 45.6055 123.746 44.9961C124.316 44.3789 124.988 43.9023 125.762 43.5664C126.543 43.2227 127.414 43.0625 128.375 43.0859C129.258 43.1016 130.016 43.2812 130.648 43.625C131.289 43.9609 131.805 44.418 132.195 44.9961C132.594 45.5742 132.867 46.2305 133.016 46.9648C133.164 47.6992 133.195 48.4766 133.109 49.2969L132.898 50.7969H122.973L123.348 48.4414L129.688 48.4531L129.758 48.1367C129.812 47.7383 129.793 47.375 129.699 47.0469C129.605 46.7109 129.43 46.4414 129.172 46.2383C128.914 46.0352 128.566 45.9258 128.129 45.9102C127.621 45.9023 127.195 46.0117 126.852 46.2383C126.508 46.4648 126.23 46.7695 126.02 47.1523C125.809 47.5273 125.645 47.9375 125.527 48.3828C125.418 48.8203 125.336 49.2461 125.281 49.6602L125.234 50.1055C125.203 50.5117 125.215 50.9062 125.27 51.2891C125.332 51.6719 125.449 52.0195 125.621 52.332C125.801 52.6367 126.043 52.8867 126.348 53.082C126.66 53.2695 127.047 53.3711 127.508 53.3867C128.109 53.4023 128.668 53.2852 129.184 53.0352C129.707 52.7852 130.176 52.4492 130.59 52.0273L132.137 53.9844C131.777 54.5156 131.324 54.9492 130.777 55.2852C130.23 55.6133 129.641 55.8555 129.008 56.0117C128.383 56.168 127.766 56.2422 127.156 56.2344ZM138.91 46.4727L137.258 56H133.684L135.887 43.3203H139.227L138.91 46.4727ZM143.047 43.2148L142.602 46.625C142.398 46.5938 142.199 46.5664 142.004 46.543C141.809 46.5195 141.609 46.5078 141.406 46.5078C140.961 46.5 140.559 46.5547 140.199 46.6719C139.848 46.7812 139.539 46.9492 139.273 47.1758C139.016 47.4023 138.801 47.6836 138.629 48.0195C138.457 48.3477 138.328 48.7227 138.242 49.1445L137.586 48.8164C137.672 48.2148 137.805 47.582 137.984 46.918C138.164 46.2461 138.414 45.6172 138.734 45.0312C139.062 44.4375 139.48 43.9609 139.988 43.6016C140.504 43.2344 141.137 43.0508 141.887 43.0508C142.082 43.0508 142.273 43.0664 142.461 43.0977C142.656 43.1289 142.852 43.168 143.047 43.2148ZM161.352 45.8047L160.836 48.7578H152.246L152.762 45.8047H161.352ZM155.141 38.9375L152.176 56H148.461L151.414 38.9375H155.141ZM165.102 38.9375L162.137 56H158.434L161.387 38.9375H165.102ZM170.797 56.2344C169.922 56.2188 169.129 56.0547 168.418 55.7422C167.715 55.4297 167.121 55 166.637 54.4531C166.152 53.8984 165.797 53.2539 165.57 52.5195C165.344 51.7852 165.262 50.9844 165.324 50.1172L165.371 49.6602C165.465 48.7539 165.68 47.9023 166.016 47.1055C166.359 46.3086 166.816 45.6055 167.387 44.9961C167.957 44.3789 168.629 43.9023 169.402 43.5664C170.184 43.2227 171.055 43.0625 172.016 43.0859C172.898 43.1016 173.656 43.2812 174.289 43.625C174.93 43.9609 175.445 44.418 175.836 44.9961C176.234 45.5742 176.508 46.2305 176.656 46.9648C176.805 47.6992 176.836 48.4766 176.75 49.2969L176.539 50.7969H166.613L166.988 48.4414L173.328 48.4531L173.398 48.1367C173.453 47.7383 173.434 47.375 173.34 47.0469C173.246 46.7109 173.07 46.4414 172.812 46.2383C172.555 46.0352 172.207 45.9258 171.77 45.9102C171.262 45.9023 170.836 46.0117 170.492 46.2383C170.148 46.4648 169.871 46.7695 169.66 47.1523C169.449 47.5273 169.285 47.9375 169.168 48.3828C169.059 48.8203 168.977 49.2461 168.922 49.6602L168.875 50.1055C168.844 50.5117 168.855 50.9062 168.91 51.2891C168.973 51.6719 169.09 52.0195 169.262 52.332C169.441 52.6367 169.684 52.8867 169.988 53.082C170.301 53.2695 170.688 53.3711 171.148 53.3867C171.75 53.4023 172.309 53.2852 172.824 53.0352C173.348 52.7852 173.816 52.4492 174.23 52.0273L175.777 53.9844C175.418 54.5156 174.965 54.9492 174.418 55.2852C173.871 55.6133 173.281 55.8555 172.648 56.0117C172.023 56.168 171.406 56.2422 170.797 56.2344ZM182.551 46.4727L180.898 56H177.324L179.527 43.3203H182.867L182.551 46.4727ZM186.688 43.2148L186.242 46.625C186.039 46.5938 185.84 46.5664 185.645 46.543C185.449 46.5195 185.25 46.5078 185.047 46.5078C184.602 46.5 184.199 46.5547 183.84 46.6719C183.488 46.7812 183.18 46.9492 182.914 47.1758C182.656 47.4023 182.441 47.6836 182.27 48.0195C182.098 48.3477 181.969 48.7227 181.883 49.1445L181.227 48.8164C181.312 48.2148 181.445 47.582 181.625 46.918C181.805 46.2461 182.055 45.6172 182.375 45.0312C182.703 44.4375 183.121 43.9609 183.629 43.6016C184.145 43.2344 184.777 43.0508 185.527 43.0508C185.723 43.0508 185.914 43.0664 186.102 43.0977C186.297 43.1289 186.492 43.168 186.688 43.2148ZM191.867 56.2344C190.992 56.2188 190.199 56.0547 189.488 55.7422C188.785 55.4297 188.191 55 187.707 54.4531C187.223 53.8984 186.867 53.2539 186.641 52.5195C186.414 51.7852 186.332 50.9844 186.395 50.1172L186.441 49.6602C186.535 48.7539 186.75 47.9023 187.086 47.1055C187.43 46.3086 187.887 45.6055 188.457 44.9961C189.027 44.3789 189.699 43.9023 190.473 43.5664C191.254 43.2227 192.125 43.0625 193.086 43.0859C193.969 43.1016 194.727 43.2812 195.359 43.625C196 43.9609 196.516 44.418 196.906 44.9961C197.305 45.5742 197.578 46.2305 197.727 46.9648C197.875 47.6992 197.906 48.4766 197.82 49.2969L197.609 50.7969H187.684L188.059 48.4414L194.398 48.4531L194.469 48.1367C194.523 47.7383 194.504 47.375 194.41 47.0469C194.316 46.7109 194.141 46.4414 193.883 46.2383C193.625 46.0352 193.277 45.9258 192.84 45.9102C192.332 45.9023 191.906 46.0117 191.562 46.2383C191.219 46.4648 190.941 46.7695 190.73 47.1523C190.52 47.5273 190.355 47.9375 190.238 48.3828C190.129 48.8203 190.047 49.2461 189.992 49.6602L189.945 50.1055C189.914 50.5117 189.926 50.9062 189.98 51.2891C190.043 51.6719 190.16 52.0195 190.332 52.332C190.512 52.6367 190.754 52.8867 191.059 53.082C191.371 53.2695 191.758 53.3711 192.219 53.3867C192.82 53.4023 193.379 53.2852 193.895 53.0352C194.418 52.7852 194.887 52.4492 195.301 52.0273L196.848 53.9844C196.488 54.5156 196.035 54.9492 195.488 55.2852C194.941 55.6133 194.352 55.8555 193.719 56.0117C193.094 56.168 192.477 56.2422 191.867 56.2344ZM205.355 38.9375L202.895 50.6914H199.941L201.547 38.9375H205.355ZM198.781 54.4062C198.773 53.8359 198.965 53.3711 199.355 53.0117C199.754 52.6523 200.227 52.4688 200.773 52.4609C201.305 52.4531 201.766 52.6172 202.156 52.9531C202.547 53.2891 202.746 53.7305 202.754 54.2773C202.762 54.8398 202.566 55.3047 202.168 55.6719C201.777 56.0312 201.309 56.2109 200.762 56.2109C200.23 56.2188 199.77 56.0586 199.379 55.7305C198.996 55.3945 198.797 54.9531 198.781 54.4062Z" fill="#5499EB"/>
</svg>
