<svg width="139" height="141" viewBox="0 0 139 141" fill="none" xmlns="http://www.w3.org/2000/svg">
<g clip-path="url(#clip0_85_42)">
<path d="M42.6228 50.5601C42.3995 49.6165 42.5537 48.6243 43.0517 47.8018C43.5496 46.9794 44.3504 46.394 45.2779 46.1745C46.2054 45.955 47.1836 46.1193 47.9974 46.6313C48.8111 47.1434 49.3938 47.9612 49.6171 48.9048C49.8404 49.8484 50.423 50.6662 51.2368 51.1782C52.0505 51.6903 53.0288 51.8546 53.9563 51.6351C54.8838 51.4156 55.6846 50.8302 56.1825 50.0078C56.6804 49.1853 56.8347 48.1931 56.6114 47.2495C56.2796 45.8478 55.6798 44.524 54.846 43.3538C54.0123 42.1835 52.961 41.1897 51.7523 40.4291C50.5435 39.6685 49.2008 39.156 47.801 38.9209C46.4012 38.6857 44.9716 38.7325 43.5938 39.0586C42.216 39.3846 40.9171 39.9836 39.7712 40.8212C38.6253 41.6589 37.6548 42.7188 36.9151 43.9406C36.1755 45.1623 35.6812 46.5219 35.4604 47.9417C35.2396 49.3615 35.2968 50.8137 35.6285 52.2154C35.8518 53.159 36.4344 53.9768 37.2482 54.4888C38.062 55.0009 39.0402 55.1652 39.9677 54.9457C40.8952 54.7262 41.696 54.1408 42.1939 53.3184C42.6918 52.4959 42.8461 51.5037 42.6228 50.5601ZM80.2493 37.898C79.3218 38.1175 78.521 38.7029 78.0231 39.5253C77.5252 40.3478 77.3709 41.34 77.5942 42.2836C77.8176 43.2272 77.6633 44.2194 77.1654 45.0419C76.6674 45.8643 75.8666 46.4497 74.9391 46.6692C74.0116 46.8887 73.0334 46.7244 72.2197 46.2123C71.4059 45.7003 70.8233 44.8825 70.6 43.9389C69.93 41.108 70.3928 38.1315 71.8866 35.6641C73.3804 33.1967 75.7828 31.4406 78.5653 30.782C81.3478 30.1235 84.2824 30.6165 86.7237 32.1526C89.165 33.6887 90.9129 36.1421 91.5828 38.973C91.8062 39.9166 91.6519 40.9088 91.154 41.7313C90.656 42.5537 89.8552 43.1391 88.9277 43.3586C88.0002 43.5781 87.022 43.4138 86.2082 42.9017C85.3945 42.3897 84.8119 41.5719 84.5885 40.6283C84.3652 39.6847 83.7826 38.8669 82.9688 38.3548C82.1551 37.8428 81.1768 37.6785 80.2493 37.898ZM47.6155 61.5445C47.1939 61.3245 46.7344 61.1907 46.2632 61.1507C45.7921 61.1107 45.3185 61.1653 44.8695 61.3113C44.4206 61.4573 44.005 61.692 43.6465 62.0018C43.2881 62.3116 42.9938 62.6906 42.7805 63.1171C42.5672 63.5435 42.439 64.0092 42.4032 64.4873C42.3674 64.9655 42.4248 65.4469 42.5721 65.904C42.7194 66.361 42.9536 66.7849 43.2615 67.1513C43.5694 67.5177 43.9448 67.8195 44.3665 68.0395C51.3885 71.6978 60.4413 72.764 69.5269 70.6138C78.616 68.4627 86.2236 63.4536 90.8645 57.035C91.1428 56.6494 91.3432 56.2113 91.4541 55.7458C91.5651 55.2803 91.5846 54.7964 91.5113 54.3218C91.4381 53.8472 91.2736 53.3911 91.0273 52.9797C90.7811 52.5683 90.4578 52.2095 90.0759 51.9239C89.694 51.6383 89.2611 51.4314 88.8018 51.3151C88.3425 51.1988 87.8659 51.1754 87.3991 51.2461C86.9323 51.3168 86.4845 51.4803 86.0812 51.7272C85.678 51.9741 85.3272 52.2997 85.0489 52.6853C81.5337 57.5563 75.4658 61.69 67.842 63.4943C60.2182 65.2986 52.9411 64.3231 47.6155 61.5445Z" fill="#5499EB"/>
<path fill-rule="evenodd" clip-rule="evenodd" d="M22.1886 86.307C21.1575 83.7838 20.3247 81.183 19.6979 78.5291C13.1872 51.0189 29.8294 23.5299 56.8693 17.1305C83.9092 10.7311 111.107 27.8447 117.618 55.3549C118.234 57.9557 118.643 60.5603 118.854 63.1517C118.882 63.4879 118.864 63.826 118.8 64.1564C120.774 66.1314 121.494 69.0796 120.668 71.7397C122.348 72.4734 123.705 73.8124 124.474 75.497C125.244 77.1816 125.373 79.0917 124.835 80.8568C125.813 81.3103 126.681 81.9807 127.372 82.8183C128.064 83.6558 128.562 84.6392 128.831 85.6955C129.099 86.7519 129.131 87.8542 128.923 88.9208C128.715 89.9875 128.274 90.9912 127.631 91.8577L122.854 98.4814C122.81 98.5428 122.763 98.6026 122.715 98.6607L112.646 110.76C111.94 111.607 111.154 112.381 110.297 113.07C107.31 115.477 103.657 116.883 99.8372 117.098C96.0172 117.313 92.2159 116.326 88.9513 114.271L88.6172 114.061C83.1339 116.414 77.2768 117.762 71.316 118.043L71.0249 118.514C69.0276 121.814 66.072 124.4 62.5609 125.92C59.0499 127.44 55.1544 127.82 51.4052 127.008C50.3308 126.776 49.2807 126.437 48.2702 125.995L33.8457 119.693C33.7765 119.663 33.7084 119.63 33.6415 119.595L26.4058 115.814C25.4426 115.328 24.5978 114.629 23.9337 113.769C23.2697 112.909 22.8035 111.909 22.5696 110.845C22.3358 109.78 22.3403 108.678 22.5827 107.619C22.8252 106.56 23.2995 105.572 23.9705 104.728C22.6989 103.391 21.9581 101.625 21.8919 99.7739C21.8257 97.9227 22.4387 96.1179 23.6122 94.7095C22.5619 93.616 21.8629 92.2256 21.6086 90.7241C21.3542 89.2226 21.5566 87.6816 22.1886 86.307ZM26.6922 76.8738C21.112 53.2952 35.3778 29.7312 58.5534 24.2464C81.729 18.7615 105.043 33.4315 110.624 57.0102C111.041 58.7714 111.346 60.5289 111.545 62.2776C110.959 62.4507 110.397 62.6973 109.873 63.0117C109.106 62.1065 108.14 61.3986 107.053 60.947C105.966 60.4953 104.791 60.3129 103.625 60.415C102.46 60.517 101.337 60.9006 100.35 61.5338C99.364 62.1669 98.5426 63.0313 97.9547 64.055L93.7812 71.8246C93.099 70.2931 91.9302 69.036 90.4635 68.2561C88.9967 67.4762 87.3178 67.2193 85.6978 67.5266C84.0778 67.834 82.6114 68.6878 81.5353 69.9502C80.4593 71.2125 79.8366 72.8096 79.7677 74.4836L79.7653 74.5518L79.7683 74.6112L79.7517 82.9675L79.673 89.4072C79.6722 89.4373 79.6719 89.4675 79.6722 89.4976L79.6734 89.5649C79.7042 90.4366 79.6623 91.3087 79.5481 92.1721L79.3365 93.7589C78.6612 98.8482 79.4302 104.313 82.4036 108.607C79.7842 109.475 77.0881 110.089 74.3512 110.441C75.0575 105.296 73.2985 100.095 70.4257 95.8677L69.528 94.5397C69.0083 93.7777 68.5565 92.9705 68.1779 92.1277L65.2202 86.4028L61.4607 78.9439C60.6682 77.4557 59.4041 76.2805 57.875 75.6105C56.3459 74.9406 54.6422 74.8154 53.0425 75.2555C51.4427 75.6957 50.0414 76.675 49.0677 78.0335C48.094 79.3921 47.6054 81.0494 47.6818 82.7347L40.4677 77.6564C39.4833 77.0048 38.3616 76.6003 37.1961 76.4764C36.0306 76.3525 34.8549 76.5129 33.767 76.9442C32.6791 77.3755 31.7104 78.0653 30.9415 78.9561C30.1725 79.8469 29.6257 80.913 29.3464 82.0656C28.9825 82.0391 28.6174 82.0402 28.254 82.0687C27.6293 80.3704 27.1077 78.6355 26.6922 76.8738ZM89.7785 107.03C90.0513 107.172 90.3045 107.349 90.5313 107.559L90.5617 107.578L92.3312 108.688C94.4603 110.029 96.9396 110.673 99.431 110.533C101.923 110.393 104.305 109.476 106.254 107.907C106.774 107.483 107.257 107.012 107.688 106.493L117.686 94.4818L122.406 87.9281L122.439 87.8825C122.681 87.5623 122.596 87.094 122.253 86.8783C122.058 86.7455 121.836 86.6605 121.604 86.63L117.638 93.1857C117.191 93.9271 116.472 94.4558 115.637 94.6554C114.803 94.8549 113.922 94.7091 113.188 94.25C112.455 93.7908 111.929 93.0559 111.726 92.207C111.523 91.358 111.66 90.4646 112.106 89.7231L112.114 89.71L116.025 83.1862L116.033 83.1766C116.15 82.9836 116.276 82.7961 116.407 82.6184L118.558 79.0661C118.623 78.9567 118.665 78.8341 118.679 78.7066C118.693 78.5791 118.68 78.4497 118.641 78.3274C118.601 78.2051 118.536 78.0927 118.45 77.9978C118.364 77.903 118.259 77.828 118.142 77.778L118.132 77.7805C118.064 77.8042 117.796 77.9388 117.512 78.4081L117.437 78.5273L110.542 88.8873C110.312 89.2488 110.014 89.5602 109.665 89.8039C109.316 90.0476 108.923 90.2186 108.507 90.3073C108.092 90.396 107.663 90.4007 107.244 90.3209C106.826 90.2412 106.426 90.0787 106.069 89.8426C105.711 89.6066 105.402 89.3016 105.159 88.9452C104.916 88.5888 104.745 88.1879 104.654 87.7653C104.564 87.3428 104.556 86.9069 104.631 86.4826C104.707 86.0583 104.864 85.6538 105.093 85.2923L114.398 69.9172C114.461 69.8178 114.504 69.7066 114.524 69.5899C114.544 69.4733 114.541 69.3536 114.514 69.2379C114.488 69.1221 114.44 69.0127 114.371 68.916C114.303 68.8192 114.217 68.7372 114.117 68.6745C114.018 68.6119 113.907 68.5699 113.791 68.5511C113.676 68.5323 113.558 68.5371 113.445 68.5651C113.332 68.5931 113.226 68.6438 113.132 68.7142C113.039 68.7846 112.96 68.8734 112.901 68.9752L103.593 84.3512C103.152 85.0881 102.442 85.6167 101.616 85.8225C100.79 86.0283 99.9156 85.8946 99.1812 85.4505C98.4469 85.0064 97.9123 84.2876 97.6933 83.4499C97.4743 82.6122 97.5886 81.7232 98.0113 80.9756L105.001 68.4253C105.02 68.3916 105.039 68.3582 105.059 68.3252C105.187 68.1286 105.232 67.8878 105.185 67.6559C105.137 67.424 105.001 67.2199 104.807 67.0886C104.612 66.9573 104.375 66.9095 104.147 66.9557C103.919 67.0019 103.719 67.1384 103.591 67.335L95.5933 82.2279C95.2822 82.8065 94.8057 83.275 94.2262 83.5722C93.6466 83.8694 92.9909 83.9814 92.3447 83.8937C91.6985 83.806 91.0919 83.5226 90.6041 83.0805C90.1163 82.6384 89.77 82.0582 89.6105 81.4158L87.9339 74.6437C87.8821 74.4453 87.7637 74.271 87.5992 74.1512C87.4347 74.0313 87.2345 73.9734 87.0334 73.9876C86.8322 74.0017 86.6428 74.0869 86.4981 74.2285C86.3534 74.3701 86.2624 74.559 86.2411 74.7625L86.2231 83.0816L86.1457 89.4647C86.1837 90.6789 86.1228 91.8935 85.9637 93.0959L85.7529 94.6863C85.0589 99.9153 86.4084 104.432 89.7828 107.033L89.7785 107.03ZM29.317 88.7605C29.2187 88.6958 29.1088 88.6517 28.9938 88.6306C28.8787 88.6095 28.7609 88.6118 28.6472 88.6375C28.5334 88.6632 28.426 88.7118 28.3313 88.7803C28.2366 88.8488 28.1564 88.9359 28.0955 89.0366C28.0345 89.1372 27.9941 89.2493 27.9765 89.3664C27.9589 89.4834 27.9645 89.603 27.9929 89.7182C28.0214 89.8334 28.0721 89.9418 28.1422 90.0372C28.2122 90.1325 28.3002 90.2129 28.401 90.2735L43.6142 99.846C43.9815 100.066 44.3031 100.357 44.5606 100.703C44.8181 101.049 45.0065 101.442 45.1149 101.86C45.2233 102.278 45.2497 102.714 45.1926 103.141C45.1354 103.568 44.9959 103.979 44.7819 104.351C44.5679 104.722 44.2836 105.046 43.9453 105.305C43.607 105.564 43.2213 105.752 42.8102 105.859C42.3991 105.966 41.9707 105.99 41.5494 105.928C41.1282 105.867 40.7223 105.722 40.3549 105.502L29.5441 99.3322C29.5034 99.3087 29.4632 99.2844 29.4234 99.2594C28.9626 98.9664 28.6598 98.9666 28.5882 98.9761L28.5777 98.9786C28.4951 99.0758 28.4343 99.1902 28.3996 99.3139C28.3649 99.4376 28.3572 99.5677 28.3768 99.6952C28.3964 99.8227 28.4431 99.9446 28.5134 100.052C28.5838 100.16 28.6762 100.252 28.7844 100.32L32.2983 102.528C32.4998 102.63 32.6944 102.735 32.8826 102.859L32.8948 102.864L39.3182 106.942L39.3278 106.951C40.0394 107.422 40.5432 108.156 40.7309 108.996C40.9187 109.836 40.7756 110.715 40.3323 111.444C39.889 112.173 39.1808 112.694 38.3594 112.896C37.538 113.098 36.6689 112.965 35.9383 112.525L29.4512 108.443C29.2574 108.574 29.0966 108.75 28.9818 108.956C28.9322 109.038 28.9001 109.13 28.8876 109.225C28.8752 109.321 28.8826 109.418 28.9094 109.511C28.9362 109.604 28.9819 109.69 29.0434 109.764C29.1049 109.838 29.1809 109.898 29.2665 109.941L29.3169 109.966L36.4718 113.702L50.7937 119.961C51.4109 120.229 52.0548 120.437 52.7132 120.582C55.1586 121.112 57.6995 120.864 59.9894 119.872C62.2794 118.88 64.2069 117.193 65.509 115.04L66.5896 113.255C69.0057 109.264 68.2904 104.26 65.11 99.5755L64.2088 98.2483C63.5281 97.2447 62.9299 96.1839 62.4184 95.0839L59.4882 89.4126L55.7433 81.9841C55.633 81.8117 55.467 81.6835 55.2741 81.6219C55.0813 81.5602 54.8738 81.5689 54.6877 81.6464C54.5016 81.7239 54.3485 81.8654 54.2552 82.0463C54.1619 82.2272 54.1341 82.436 54.1768 82.6366L55.7135 89.4417C55.8588 90.0876 55.8093 90.7614 55.5714 91.3753C55.3335 91.9891 54.9183 92.5143 54.3799 92.8824C53.8416 93.2504 53.2052 93.4442 52.5539 93.4383C51.9027 93.4324 51.2667 93.2271 50.7293 92.8494L36.9047 83.1211C36.7023 83.0026 36.4625 82.9702 36.2379 83.0311C36.0134 83.092 35.8226 83.2411 35.7074 83.4458C35.5923 83.6504 35.5623 83.8937 35.624 84.1222C35.6857 84.3507 35.834 84.5456 36.0364 84.6642C36.0701 84.6845 36.1033 84.7054 36.1362 84.7269L48.0065 92.8137C48.7195 93.2926 49.2201 94.036 49.3998 94.883C49.5795 95.73 49.4238 96.6122 48.9664 97.3383C48.509 98.0645 47.7869 98.5761 46.9565 98.7623C46.1261 98.9485 45.2543 98.7942 44.5302 98.333L29.317 88.7605Z" fill="#5499EB"/>
</g>
<defs>
<clipPath id="clip0_85_42">
<rect width="115" height="117" fill="white" transform="translate(0.072937 26.8149) rotate(-13.3149)"/>
</clipPath>
</defs>
</svg>
