<svg width="56" height="57" viewBox="0 0 56 57" fill="none" xmlns="http://www.w3.org/2000/svg">
<circle cx="28.0614" cy="28.1295" r="27.888" fill="#D9D4D0"/>
<path fill-rule="evenodd" clip-rule="evenodd" d="M18.0613 28.1294C18.0613 27.9969 18.0877 27.8657 18.1388 27.7435C18.19 27.6212 18.2649 27.5104 18.3593 27.4174L26.4643 19.4174C26.6531 19.2311 26.9082 19.1274 27.1735 19.1292C27.4388 19.131 27.6925 19.238 27.8788 19.4269C28.0651 19.6157 28.1688 19.8708 28.167 20.1361C28.1652 20.4014 28.0581 20.6551 27.8693 20.8414L21.4983 27.1294H37.0613C37.3265 27.1294 37.5809 27.2347 37.7684 27.4223C37.9559 27.6098 38.0613 27.8642 38.0613 28.1294C38.0613 28.3946 37.9559 28.6489 37.7684 28.8365C37.5809 29.024 37.3265 29.1294 37.0613 29.1294H21.4983L27.8693 35.4174C28.0581 35.6037 28.1652 35.8574 28.167 36.1227C28.1688 36.3879 28.0651 36.643 27.8788 36.8319C27.6925 37.0207 27.4388 37.1278 27.1735 37.1296C26.9082 37.1314 26.6531 37.0277 26.4643 36.8414L18.3593 28.8414C18.2649 28.7484 18.19 28.6375 18.1388 28.5153C18.0877 28.3931 18.0613 28.2619 18.0613 28.1294Z" fill="black"/>
</svg>
