<svg width="89" height="90" viewBox="0 0 89 90" fill="none" xmlns="http://www.w3.org/2000/svg">
<g clip-path="url(#clip0_116_2)">
<path fill-rule="evenodd" clip-rule="evenodd" d="M25.1733 21.814C24.8036 20.2795 24.7646 18.684 25.059 17.1333C25.3534 15.5826 25.9743 14.1123 26.8806 12.8201C27.7869 11.5279 28.9579 10.4433 30.3156 9.63838C31.6733 8.83349 33.1868 8.32672 34.7554 8.15173C36.324 7.97674 37.912 8.13754 39.4137 8.62345C40.9154 9.10936 42.2965 9.90926 43.4653 10.97C44.6341 12.0307 45.5638 13.328 46.1927 14.7757C46.8215 16.2234 47.1351 17.7884 47.1127 19.3666L52.8597 17.9759C55.7275 17.2819 58.7535 17.7556 61.272 19.2927C63.7905 20.8299 65.5952 23.3045 66.2892 26.1723L68.334 34.6226C69.832 33.8244 71.4928 33.3795 73.1892 33.3221C74.8856 33.2646 76.5727 33.5962 78.1212 34.2912C79.6698 34.9863 81.0387 36.0265 82.1233 37.3322C83.2079 38.6378 83.9793 40.1744 84.3785 41.8242C84.7778 43.4739 84.7942 45.1932 84.4265 46.8503C84.0589 48.5074 83.317 50.0584 82.2575 51.3845C81.1981 52.7107 79.8492 53.7768 78.3142 54.5013C76.7792 55.2259 75.0988 55.5895 73.4016 55.5645L74.7929 61.3143C75.4869 64.182 75.0132 67.208 73.4761 69.7265C71.939 72.245 69.4643 74.0498 66.5965 74.7437L31.4545 83.2475C28.5868 83.9414 25.5608 83.4677 23.0423 81.9306C20.5238 80.3935 18.719 77.9189 18.0251 75.0511L15.8553 66.0845C15.5073 64.6464 16.1556 63.3878 17.0061 62.6927C17.4644 62.3157 18.0125 62.0639 18.597 61.9615C19.1815 61.8592 19.7825 61.9099 20.3416 62.1087C21.2863 62.4456 22.3046 62.5208 23.2885 62.3262C24.2725 62.1317 25.1856 61.6748 25.9311 61.0038C26.6766 60.3328 27.2268 59.4727 27.5234 58.5146C27.8201 57.5565 27.8521 56.5359 27.6162 55.5611C27.3803 54.5862 26.8852 53.6933 26.1834 52.9768C25.4815 52.2603 24.5989 51.7469 23.6291 51.491C22.6593 51.235 21.6384 51.2461 20.6743 51.523C19.7103 51.7998 18.8391 52.3322 18.1529 53.0637C17.2436 54.0363 15.9728 54.2952 14.9195 54.0694C14.2987 53.9392 13.7275 53.636 13.2718 53.1948C12.8161 52.7536 12.4947 52.1925 12.3446 51.5762L9.52133 39.9091C8.82738 37.0413 9.30107 34.0153 10.8382 31.4968C12.3753 28.9783 14.8499 27.1736 17.7177 26.4796L26.168 24.4348C25.7273 23.6066 25.393 22.726 25.1733 21.814ZM34.6779 13.791C33.703 14.0269 32.8101 14.522 32.0935 15.2239C31.377 15.9258 30.8636 16.8084 30.6077 17.7782C30.3518 18.748 30.3628 19.769 30.6397 20.7331C30.9166 21.6971 31.4491 22.5684 32.1806 23.2546C33.1532 24.1638 33.4121 25.4346 33.1863 26.488C33.0562 27.1083 32.7534 27.6791 32.3127 28.1346C31.872 28.5901 31.3115 28.9117 30.6958 29.0622L19.026 31.8861C17.5921 32.2331 16.3548 33.1354 15.5862 34.3947C14.8177 35.654 14.5808 37.1669 14.9278 38.6008L16.9726 47.0511C18.4706 46.2529 20.1314 45.8081 21.8278 45.7506C23.5242 45.6932 25.2113 46.0247 26.7598 46.7198C28.3084 47.4148 29.6773 48.455 30.7619 49.7607C31.8465 51.0664 32.6179 52.603 33.0172 54.2527C33.4164 55.9025 33.4328 57.6217 33.0651 59.2788C32.6975 60.9359 31.9556 62.4869 30.8961 63.8131C29.8367 65.1392 28.4878 66.2054 26.9528 66.9299C25.4178 67.6544 23.7374 68.0181 22.0402 67.993L23.4315 73.7428C23.7785 75.1767 24.6809 76.414 25.9401 77.1826C27.1994 77.9511 28.7124 78.188 30.1463 77.841L65.2883 69.3373C66.7222 68.9903 67.9595 68.0879 68.728 66.8287C69.4966 65.5694 69.7334 64.0564 69.3865 62.6225L67.2167 53.6559C66.8687 52.2178 67.5143 50.9599 68.3675 50.2641C68.8258 49.8872 69.3739 49.6353 69.9584 49.533C70.5429 49.4306 71.1439 49.4814 71.703 49.6802C72.6477 50.017 73.666 50.0922 74.6499 49.8977C75.6339 49.7032 76.5469 49.2462 77.2924 48.5752C78.0379 47.9042 78.5881 47.0441 78.8848 46.086C79.1815 45.1279 79.2135 44.1074 78.9776 43.1325C78.7417 42.1577 78.2466 41.2647 77.5448 40.5482C76.8429 39.8317 75.9603 39.3183 74.9905 39.0624C74.0207 38.8065 72.9998 38.8175 72.0357 39.0944C71.0717 39.3713 70.2005 39.9036 69.5142 40.6352C68.605 41.6078 67.3342 41.8667 66.2808 41.6408C65.6601 41.5107 65.0889 41.2074 64.6332 40.7663C64.1775 40.3251 63.8561 39.7639 63.706 39.1477L60.8827 27.4805C60.5357 26.0467 59.6334 24.8093 58.3741 24.0408C57.1149 23.2722 55.6019 23.0354 54.168 23.3823L45.2014 25.5521C43.7633 25.9001 42.5047 25.2518 41.8096 24.4013C41.4326 23.943 41.1808 23.3949 41.0784 22.8104C40.9761 22.2259 41.0268 21.6249 41.2256 21.0658C41.5626 20.1211 41.6377 19.1028 41.4432 18.1188C41.2487 17.1348 40.7918 16.2217 40.1208 15.4762C39.4498 14.7307 38.5897 14.1805 37.6315 13.8838C36.6734 13.5871 35.6528 13.5551 34.6779 13.791Z" fill="#5499EB"/>
</g>
<defs>
<clipPath id="clip0_116_2">
<rect width="89" height="89" fill="white" transform="translate(0 0.5)"/>
</clipPath>
</defs>
</svg>
