<svg width="57" height="57" viewBox="0 0 57 57" fill="none" xmlns="http://www.w3.org/2000/svg">
<circle cx="28.5487" cy="28.1295" r="27.888" fill="#D9D4D0"/>
<path fill-rule="evenodd" clip-rule="evenodd" d="M38.5486 28.1294C38.5487 27.9969 38.5225 27.8658 38.4715 27.7436C38.4205 27.6214 38.3458 27.5105 38.2516 27.4174L30.1456 19.4174C29.9567 19.2311 29.7016 19.1274 29.4364 19.1292C29.1711 19.131 28.9174 19.238 28.7311 19.4269C28.5448 19.6157 28.4411 19.8708 28.4429 20.1361C28.4447 20.4014 28.5517 20.6551 28.7406 20.8414L35.1116 27.1294H19.5486C19.2834 27.1294 19.029 27.2347 18.8415 27.4223C18.6539 27.6098 18.5486 27.8642 18.5486 28.1294C18.5486 28.3946 18.6539 28.6489 18.8415 28.8365C19.029 29.024 19.2834 29.1294 19.5486 29.1294H35.1116L28.7406 35.4174C28.6471 35.5096 28.5727 35.6194 28.5216 35.7404C28.4705 35.8614 28.4438 35.9913 28.4429 36.1227C28.442 36.254 28.467 36.3842 28.5164 36.5059C28.5659 36.6276 28.6388 36.7384 28.7311 36.8319C28.8233 36.9254 28.9331 36.9998 29.0541 37.0509C29.1751 37.102 29.305 37.1287 29.4364 37.1296C29.5677 37.1305 29.698 37.1055 29.8196 37.056C29.9413 37.0066 30.0521 36.9336 30.1456 36.8414L38.2506 28.8414C38.3449 28.7484 38.4199 28.6375 38.471 28.5153C38.5222 28.3931 38.5486 28.2619 38.5486 28.1294Z" fill="black"/>
</svg>
