<svg width="69" height="70" viewBox="0 0 69 70" fill="none" xmlns="http://www.w3.org/2000/svg">
<path fill-rule="evenodd" clip-rule="evenodd" d="M46.4801 11.3635C47.541 8.66384 51.3532 8.66384 52.4163 11.3635L54.096 15.6328L58.3546 17.3147C61.0499 18.3799 61.0499 22.2008 58.3546 23.266L54.096 24.9478L52.4141 29.2172C51.3532 31.9168 47.541 31.9168 46.4801 29.2172L44.7982 24.9478L40.5397 23.266C37.8465 22.2008 37.8465 18.3799 40.5397 17.3147L44.8004 15.6328L46.4801 11.3635ZM49.4471 15.4409L48.5868 17.6274C48.2633 18.4511 47.6122 19.1044 46.7906 19.4278L44.6085 20.2903L46.7906 21.1528C47.6122 21.4763 48.2633 22.1296 48.5868 22.9533L49.4493 25.1397L50.3075 22.9533C50.4677 22.5459 50.71 22.1758 51.0194 21.8661C51.3288 21.5563 51.6986 21.3136 52.1058 21.1528L54.2836 20.2903L52.1058 19.4278C51.6986 19.267 51.3289 19.0242 51.0195 18.7145C50.7102 18.4047 50.4678 18.0347 50.3075 17.6274L49.4471 15.4409ZM22.2676 20.2731C23.6842 16.6722 28.7665 16.6722 30.1832 20.2731L33.2817 28.1434L41.1326 31.2484C44.7249 32.6672 44.7249 37.7603 41.1326 39.1812L33.2796 42.2841L30.1832 50.1544C28.7665 53.7553 23.6842 53.7553 22.2697 50.1544L19.1712 42.2841L11.3182 39.1791C7.728 37.7603 7.728 32.6672 11.3182 31.2484L19.1712 28.1434L22.2676 20.2731ZM26.2265 21.8385L23.1279 29.7088C22.6967 30.8085 21.8277 31.6775 20.7323 32.1109L12.8793 35.2137L20.7323 38.3187C21.8277 38.75 22.6945 39.6211 23.1279 40.7187L26.2265 48.589L29.3228 40.7187C29.7541 39.619 30.6231 38.75 31.7206 38.3166L39.5715 35.2137L31.7206 32.1087C31.1777 31.894 30.6847 31.57 30.2722 31.1568C29.8597 30.7436 29.5366 30.25 29.3228 29.7067L26.2265 21.8364V21.8385ZM54.096 45.4775L52.4141 41.2081C51.3532 38.5107 47.541 38.5107 46.4801 41.2081L44.7982 45.4775L40.5397 47.1615C37.8465 48.2267 37.8465 52.0476 40.5397 53.1128L44.8004 54.7947L46.4801 59.064C47.541 61.7637 51.3532 61.7637 52.4163 59.064L54.096 54.7947L58.3546 53.1128C61.0499 52.0476 61.0499 48.2267 58.3546 47.1615L54.096 45.4775ZM48.5868 47.4742L49.4493 45.2877L50.3075 47.4742C50.6309 48.2979 51.2821 48.9491 52.1058 49.2747L54.2836 50.1371L52.1058 50.9996C51.2821 51.3231 50.6309 51.9764 50.3075 52.8001L49.4471 54.9866L48.5868 52.8001C48.4267 52.393 48.1846 52.0231 47.8757 51.7134C47.5667 51.4036 47.1974 51.1607 46.7906 50.9996L44.6085 50.1371L46.7906 49.2747C47.6122 48.9512 48.2633 48.2979 48.5868 47.4742Z" fill="#5499EB"/>
</svg>
